<svg xmlns="http://www.w3.org/2000/svg" width="554" height="526" viewBox="0 0 554 526" version="1.1"><path d="M 315.269 145.693 C 316.242 145.947, 317.592 145.930, 318.269 145.656 C 318.946 145.382, 318.150 145.175, 316.500 145.195 C 314.850 145.215, 314.296 145.439, 315.269 145.693 M 337 165.711 C 337 166.285, 337.788 167.373, 338.750 168.128 C 340.369 169.397, 340.390 169.350, 339.033 167.500 C 338.226 166.400, 337.439 165.313, 337.283 165.083 C 337.127 164.854, 337 165.137, 337 165.711 M 215.946 172.750 L 212.500 176.500 216.250 173.054 C 219.740 169.846, 220.460 169, 219.696 169 C 219.529 169, 217.842 170.688, 215.946 172.750 M 344.320 197 C 344.320 200.575, 344.502 202.037, 344.723 200.250 C 344.945 198.463, 344.945 195.537, 344.723 193.750 C 344.502 191.963, 344.320 193.425, 344.320 197 M 338.405 230.250 L 336.500 232.500 338.750 230.595 C 340.864 228.805, 341.455 228, 340.655 228 C 340.465 228, 339.453 229.012, 338.405 230.250 M 221.500 235 C 223.648 237.200, 225.631 239, 225.906 239 C 226.181 239, 224.648 237.200, 222.500 235 C 220.352 232.800, 218.369 231, 218.094 231 C 217.819 231, 219.352 232.800, 221.500 235" stroke="none" fill="#bf7b43" fill-rule="evenodd"/><path d="M 284.437 142.250 L 281.500 145.500 284.750 142.563 C 287.779 139.825, 288.460 139, 287.687 139 C 287.515 139, 286.052 140.463, 284.437 142.250 M 320.500 143 C 321.495 144.100, 322.535 145, 322.810 145 C 323.085 145, 322.495 144.100, 321.500 143 C 320.505 141.900, 319.465 141, 319.190 141 C 318.915 141, 319.505 141.900, 320.500 143 M 286.272 157 C 286.272 159.475, 286.467 160.488, 286.706 159.250 C 286.944 158.012, 286.944 155.988, 286.706 154.750 C 286.467 153.512, 286.272 154.525, 286.272 157 M 270.158 157 C 270.158 158.375, 270.385 158.938, 270.662 158.250 C 270.940 157.563, 270.940 156.438, 270.662 155.750 C 270.385 155.063, 270.158 155.625, 270.158 157 M 313.750 178.662 C 314.438 178.940, 315.563 178.940, 316.250 178.662 C 316.938 178.385, 316.375 178.158, 315 178.158 C 313.625 178.158, 313.063 178.385, 313.750 178.662 M 344.195 205.500 C 344.215 207.150, 344.439 207.704, 344.693 206.731 C 344.947 205.758, 344.930 204.408, 344.656 203.731 C 344.382 203.054, 344.175 203.850, 344.195 205.500 M 236.750 334.662 C 237.438 334.940, 238.563 334.940, 239.250 334.662 C 239.938 334.385, 239.375 334.158, 238 334.158 C 236.625 334.158, 236.063 334.385, 236.750 334.662 M 377.750 335.662 C 378.438 335.940, 379.563 335.940, 380.250 335.662 C 380.938 335.385, 380.375 335.158, 379 335.158 C 377.625 335.158, 377.063 335.385, 377.750 335.662 M 248.269 342.693 C 249.242 342.947, 250.592 342.930, 251.269 342.656 C 251.946 342.382, 251.150 342.175, 249.500 342.195 C 247.850 342.215, 247.296 342.439, 248.269 342.693 M 312.269 342.693 C 313.242 342.947, 314.592 342.930, 315.269 342.656 C 315.946 342.382, 315.150 342.175, 313.500 342.195 C 311.850 342.215, 311.296 342.439, 312.269 342.693" stroke="none" fill="#a06738" fill-rule="evenodd"/><path d="M 299.513 125.568 C 298.040 128.081, 293.883 133.267, 290.274 137.092 C 283.740 144.019, 282.950 145.785, 286.956 144.514 C 289.858 143.593, 293.421 139.706, 298.656 131.750 C 303.915 123.757, 303.085 124.020, 306.546 129.249 C 308.093 131.586, 311.593 135.861, 314.324 138.749 L 319.290 144 314.895 144.150 L 310.500 144.300 315 144.930 C 320.902 145.756, 322.427 145.285, 320.403 143.260 C 318.127 140.985, 308.849 129.079, 305.982 124.757 C 302.856 120.042, 302.743 120.057, 299.513 125.568 M 294.750 145.662 C 295.438 145.940, 296.563 145.940, 297.250 145.662 C 297.938 145.385, 297.375 145.158, 296 145.158 C 294.625 145.158, 294.063 145.385, 294.750 145.662 M 272.554 151.913 C 272.098 152.650, 273.833 153, 277.941 153 L 284 153 284.070 156.750 C 284.201 163.725, 285.853 165.058, 285.930 158.250 L 286 152 281.750 151.986 C 279.413 151.979, 276.538 151.715, 275.363 151.399 C 274.187 151.084, 272.923 151.315, 272.554 151.913 M 337.809 168.524 C 337.521 168.813, 338.160 171.625, 339.231 174.774 C 341.217 180.618, 341.188 197.963, 339.157 219.457 L 338.500 226.414 331.500 232.293 C 327.650 235.526, 321.350 240.231, 317.500 242.748 C 307.902 249.023, 307.148 250.052, 315.500 245.480 C 332.759 236.030, 339.586 230.139, 341.555 223 C 343.551 215.758, 344.553 192.023, 343.137 185.500 C 339.553 168.987, 339.026 167.307, 337.809 168.524 M 215.787 173.797 C 207.952 182.173, 206.605 191.387, 209.987 213.490 C 212.140 227.560, 230.700 246.746, 250.779 255.657 C 258.176 258.940, 258.459 258.573, 251.683 254.487 C 224.180 237.903, 217.898 229.051, 213.471 200.644 C 210.336 180.529, 210.142 182.362, 216.121 175.654 C 222.372 168.641, 222.088 167.061, 215.787 173.797 M 268 170.697 C 268 171.264, 266.762 172.980, 265.250 174.511 C 262.897 176.893, 262.822 177.126, 264.727 176.124 C 267.125 174.864, 269.530 171.197, 268.581 170.248 C 268.261 169.928, 268 170.130, 268 170.697 M 289.092 172.807 C 290.842 175.674, 296.575 179.338, 298.252 178.662 C 298.996 178.361, 298.795 178.126, 297.753 178.079 C 296.792 178.036, 294.133 176.313, 291.845 174.250 C 288.992 171.679, 288.127 171.226, 289.092 172.807 M 228.463 176.939 C 230.618 180.426, 253.624 182.117, 258.547 179.149 C 260.219 178.142, 260.068 178.083, 257.500 178.736 C 252.750 179.946, 237.957 179.318, 232.752 177.686 C 230.140 176.867, 228.210 176.531, 228.463 176.939 M 324.500 177.650 C 322.045 178.575, 316.555 179.224, 310.288 179.329 C 298.242 179.531, 299.659 180.838, 312 180.908 C 319.824 180.952, 329 178.599, 329 176.549 C 329 176.247, 328.887 176.032, 328.750 176.070 C 328.613 176.109, 326.700 176.820, 324.500 177.650 M 274.233 205.834 C 273.478 207.803, 275.956 209.063, 279.992 208.761 C 282.300 208.588, 283.589 207.943, 283.795 206.855 C 284.209 204.665, 275.057 203.688, 274.233 205.834 M 289 260.248 C 284.592 262.451, 268.861 262.698, 264.893 260.627 L 262.287 259.267 263.710 262.121 C 264.493 263.690, 264.898 265.356, 264.610 265.822 C 264.064 266.706, 269.507 269.662, 274.231 271.048 C 280.305 272.830, 294.047 265.494, 293.053 261 L 292.500 258.500 289 260.248" stroke="none" fill="#d88b4b" fill-rule="evenodd"/><path d="M 157.405 314.250 L 155.500 316.500 157.750 314.595 C 158.988 313.547, 160 312.535, 160 312.345 C 160 311.545, 159.195 312.136, 157.405 314.250 M 151.405 320.250 L 149.500 322.500 151.750 320.595 C 152.988 319.547, 154 318.535, 154 318.345 C 154 317.545, 153.195 318.136, 151.405 320.250 M 410.500 320 C 411.495 321.100, 412.535 322, 412.810 322 C 413.085 322, 412.495 321.100, 411.500 320 C 410.505 318.900, 409.465 318, 409.190 318 C 408.915 318, 409.505 318.900, 410.500 320 M 257.750 342.740 C 261.188 342.936, 266.813 342.936, 270.250 342.740 C 273.688 342.545, 270.875 342.385, 264 342.385 C 257.125 342.385, 254.313 342.545, 257.750 342.740 M 291.250 342.689 C 292.212 342.941, 293.788 342.941, 294.750 342.689 C 295.712 342.438, 294.925 342.232, 293 342.232 C 291.075 342.232, 290.288 342.438, 291.250 342.689 M 300.728 342.722 C 302.503 342.943, 305.653 342.946, 307.728 342.730 C 309.802 342.513, 308.350 342.333, 304.500 342.328 C 300.650 342.324, 298.952 342.501, 300.728 342.722 M 186.750 343.662 C 187.438 343.940, 188.563 343.940, 189.250 343.662 C 189.938 343.385, 189.375 343.158, 188 343.158 C 186.625 343.158, 186.063 343.385, 186.750 343.662 M 194.776 343.733 C 197.128 343.945, 200.728 343.942, 202.776 343.727 C 204.824 343.512, 202.900 343.339, 198.500 343.343 C 194.100 343.346, 192.424 343.522, 194.776 343.733 M 210.762 343.707 C 212.006 343.946, 213.806 343.937, 214.762 343.687 C 215.718 343.437, 214.700 343.241, 212.500 343.252 C 210.300 343.263, 209.518 343.468, 210.762 343.707 M 346.768 343.725 C 348.565 343.947, 351.265 343.943, 352.768 343.715 C 354.271 343.486, 352.800 343.304, 349.500 343.310 C 346.200 343.315, 344.971 343.502, 346.768 343.725 M 357.762 343.707 C 359.006 343.946, 360.806 343.937, 361.762 343.687 C 362.718 343.437, 361.700 343.241, 359.500 343.252 C 357.300 343.263, 356.518 343.468, 357.762 343.707 M 373.750 343.662 C 374.438 343.940, 375.563 343.940, 376.250 343.662 C 376.938 343.385, 376.375 343.158, 375 343.158 C 373.625 343.158, 373.063 343.385, 373.750 343.662 M 89.473 347.324 C 91.619 360.051, 96.298 389.421, 98.503 404 C 103.666 438.143, 113.087 482, 120.952 508.500 C 123.237 516.200, 125.338 523.288, 125.621 524.250 C 126.106 525.903, 131.770 525.990, 228.317 525.811 C 284.518 525.707, 327.800 525.491, 324.500 525.331 C 321.200 525.172, 311.975 524.492, 304 523.822 C 295.289 523.089, 267.541 522.533, 234.500 522.428 C 204.250 522.331, 167.800 521.994, 153.500 521.678 L 127.500 521.104 124.238 509.302 C 119.035 490.480, 114.284 467.846, 111.576 448.984 C 110.196 439.368, 108.185 426.325, 107.109 420 C 106.032 413.675, 104.644 403.100, 104.023 396.500 C 102.453 379.788, 99.069 353.157, 98.012 349.194 C 96.850 344.836, 95.599 345.056, 123.500 344.723 L 147.500 344.437 118.219 344.292 L 88.937 344.148 89.473 347.324 M 423.813 344.749 C 432.785 344.914, 447.185 344.914, 455.813 344.748 C 464.441 344.581, 457.100 344.446, 439.500 344.446 C 421.900 344.447, 414.841 344.583, 423.813 344.749 M 92.070 419.083 C 92.109 420.962, 92.531 423.400, 93.007 424.500 C 93.565 425.787, 93.668 424.717, 93.296 421.500 C 92.609 415.554, 91.972 414.298, 92.070 419.083" stroke="none" fill="#b5bcd4" fill-rule="evenodd"/><path d="M 169.223 305.364 C 159.684 311.627, 142.449 330.215, 148.750 327.444 C 150.780 326.552, 244.645 324.592, 259.500 325.132 C 272.431 325.602, 295.313 325.592, 305.500 325.112 C 318.010 324.522, 412.352 326.460, 413.750 327.336 C 415.879 328.668, 415.156 325.893, 412.449 322.344 C 410.658 319.996, 409.088 319, 407.177 319 C 405.078 319, 404.012 318.177, 402.519 315.405 C 401.454 313.428, 398.328 309.783, 395.572 307.305 L 390.561 302.800 382.031 303.598 C 377.339 304.037, 368.325 304.439, 362 304.491 C 355.675 304.544, 345.325 305.174, 339 305.893 C 328.528 307.082, 290.730 308.092, 260.500 307.991 C 253.900 307.969, 242.950 307.167, 236.167 306.210 C 228.346 305.105, 221.396 304.693, 217.167 305.083 C 210.124 305.733, 186.786 304.534, 178.723 303.108 C 174.344 302.334, 173.551 302.522, 169.223 305.364 M 473.244 336.733 C 472.553 336.974, 472.242 337.582, 472.553 338.085 C 473.281 339.263, 477 339.281, 477 338.107 C 477 336.954, 474.857 336.170, 473.244 336.733 M 193 344.050 C 177.325 344.422, 149.537 344.787, 131.250 344.863 C 112.963 344.938, 98 345.351, 98 345.779 C 98 346.208, 118.138 346.381, 142.750 346.163 C 175.763 345.872, 196.680 346.218, 222.500 347.486 C 243.059 348.496, 261.557 348.921, 267.334 348.516 C 281.734 347.508, 404.310 348.476, 406.174 349.613 C 406.544 349.839, 416.444 350.233, 428.174 350.490 C 456.498 351.108, 465 351.822, 465 353.582 C 465 354.338, 461.836 371.954, 457.968 392.728 C 454.101 413.503, 450.026 437.025, 448.913 445 C 447.800 452.975, 445.524 466.925, 443.854 476 C 442.184 485.075, 439.753 498.800, 438.451 506.500 C 437.149 514.200, 435.832 521.836, 435.524 523.469 C 434.142 530.778, 437.211 523.303, 441.403 509.147 C 449.736 481.009, 459.199 436.789, 464.546 401 C 465.984 391.375, 468.474 375.556, 470.080 365.847 C 471.686 356.137, 473 347.548, 473 346.759 C 473 344.460, 261.907 342.418, 193 344.050 M 478.394 349.417 C 477.476 351.808, 478.687 354.057, 480.515 353.356 C 482.341 352.655, 482.145 348.869, 480.251 348.245 C 479.563 348.019, 478.728 348.546, 478.394 349.417" stroke="none" fill="#f2f2f7" fill-rule="evenodd"/><path d="M 191.750 304.662 C 192.438 304.940, 193.563 304.940, 194.250 304.662 C 194.938 304.385, 194.375 304.158, 193 304.158 C 191.625 304.158, 191.063 304.385, 191.750 304.662 M 368.269 304.693 C 369.242 304.947, 370.592 304.930, 371.269 304.656 C 371.946 304.382, 371.150 304.175, 369.500 304.195 C 367.850 304.215, 367.296 304.439, 368.269 304.693 M 208.269 305.693 C 209.242 305.947, 210.592 305.930, 211.269 305.656 C 211.946 305.382, 211.150 305.175, 209.500 305.195 C 207.850 305.215, 207.296 305.439, 208.269 305.693 M 287.762 306.707 C 289.006 306.946, 290.806 306.937, 291.762 306.687 C 292.718 306.437, 291.700 306.241, 289.500 306.252 C 287.300 306.263, 286.518 306.468, 287.762 306.707 M 329.269 306.693 C 330.242 306.947, 331.592 306.930, 332.269 306.656 C 332.946 306.382, 332.150 306.175, 330.500 306.195 C 328.850 306.215, 328.296 306.439, 329.269 306.693 M 246.750 307.662 C 247.438 307.940, 248.563 307.940, 249.250 307.662 C 249.938 307.385, 249.375 307.158, 248 307.158 C 246.625 307.158, 246.063 307.385, 246.750 307.662 M 305.250 307.728 C 307.313 307.944, 310.688 307.944, 312.750 307.728 C 314.813 307.513, 313.125 307.336, 309 307.336 C 304.875 307.336, 303.188 307.513, 305.250 307.728 M 265.269 308.693 C 266.242 308.947, 267.592 308.930, 268.269 308.656 C 268.946 308.382, 268.150 308.175, 266.500 308.195 C 264.850 308.215, 264.296 308.439, 265.269 308.693 M 251.250 324.689 C 252.213 324.941, 253.787 324.941, 254.750 324.689 C 255.713 324.438, 254.925 324.232, 253 324.232 C 251.075 324.232, 250.287 324.438, 251.250 324.689 M 308.250 324.689 C 309.212 324.941, 310.788 324.941, 311.750 324.689 C 312.712 324.438, 311.925 324.232, 310 324.232 C 308.075 324.232, 307.288 324.438, 308.250 324.689 M 232.250 325.689 C 233.213 325.941, 234.787 325.941, 235.750 325.689 C 236.713 325.438, 235.925 325.232, 234 325.232 C 232.075 325.232, 231.287 325.438, 232.250 325.689 M 327.250 325.689 C 328.212 325.941, 329.788 325.941, 330.750 325.689 C 331.712 325.438, 330.925 325.232, 329 325.232 C 327.075 325.232, 326.288 325.438, 327.250 325.689 M 196.269 326.693 C 197.242 326.947, 198.592 326.930, 199.269 326.656 C 199.946 326.382, 199.150 326.175, 197.500 326.195 C 195.850 326.215, 195.296 326.439, 196.269 326.693 M 283.750 326.662 C 284.438 326.940, 285.563 326.940, 286.250 326.662 C 286.938 326.385, 286.375 326.158, 285 326.158 C 283.625 326.158, 283.063 326.385, 283.750 326.662 M 364.269 326.693 C 365.242 326.947, 366.592 326.930, 367.269 326.656 C 367.946 326.382, 367.150 326.175, 365.500 326.195 C 363.850 326.215, 363.296 326.439, 364.269 326.693 M 279.250 342.728 C 281.313 342.944, 284.688 342.944, 286.750 342.728 C 288.813 342.513, 287.125 342.336, 283 342.336 C 278.875 342.336, 277.188 342.513, 279.250 342.728 M 217.269 343.693 C 218.242 343.947, 219.592 343.930, 220.269 343.656 C 220.946 343.382, 220.150 343.175, 218.500 343.195 C 216.850 343.215, 216.296 343.439, 217.269 343.693 M 224.750 343.706 C 225.988 343.944, 228.012 343.944, 229.250 343.706 C 230.488 343.467, 229.475 343.272, 227 343.272 C 224.525 343.272, 223.512 343.467, 224.750 343.706 M 333.250 343.728 C 335.313 343.944, 338.688 343.944, 340.750 343.728 C 342.813 343.513, 341.125 343.336, 337 343.336 C 332.875 343.336, 331.188 343.513, 333.250 343.728 M 153.789 344.741 C 157.248 344.937, 162.648 344.936, 165.789 344.738 C 168.930 344.540, 166.100 344.380, 159.500 344.382 C 152.900 344.384, 150.330 344.546, 153.789 344.741 M 395.750 344.732 C 398.087 344.943, 401.913 344.943, 404.250 344.732 C 406.587 344.522, 404.675 344.349, 400 344.349 C 395.325 344.349, 393.413 344.522, 395.750 344.732 M 471.572 344.750 C 472.069 345.163, 472.813 345.950, 473.223 346.500 C 473.649 347.071, 473.976 346.749, 473.985 345.750 C 473.993 344.777, 473.260 344, 472.333 344 C 471.417 344, 471.074 344.337, 471.572 344.750 M 98.097 349.500 C 99.083 353.213, 102.508 380.372, 104.023 396.500 C 104.644 403.100, 106.032 413.675, 107.109 420 C 108.185 426.325, 110.196 439.368, 111.576 448.984 C 114.283 467.842, 119.033 490.470, 124.238 509.306 L 127.500 521.112 153 521.662 C 167.025 521.965, 204.150 522.330, 235.500 522.474 C 271.548 522.639, 296.176 523.172, 302.500 523.923 C 308.588 524.646, 336.444 525.330, 373.702 525.670 L 434.905 526.229 435.438 523.864 C 435.732 522.564, 437.105 514.750, 438.490 506.500 C 439.875 498.250, 442.145 485.425, 443.534 478 C 444.923 470.575, 447.160 456.836, 448.506 447.468 C 449.852 438.100, 454.114 413.453, 457.977 392.696 C 461.839 371.939, 465 354.338, 465 353.582 C 465 351.822, 456.498 351.108, 428.174 350.490 C 416.444 350.233, 406.544 349.839, 406.174 349.613 C 404.326 348.486, 283.527 347.521, 267 348.501 C 259.998 348.916, 242.985 348.532, 223.500 347.520 C 200.205 346.310, 178.688 345.945, 144.400 346.179 L 97.299 346.500 98.097 349.500" stroke="none" fill="#dde0eb" fill-rule="evenodd"/><path d="M 258.750 25.662 C 259.438 25.940, 260.563 25.940, 261.250 25.662 C 261.938 25.385, 261.375 25.158, 260 25.158 C 258.625 25.158, 258.063 25.385, 258.750 25.662 M 272.500 33.418 C 248.636 38.911, 232.785 49.574, 215.890 71.500 C 212.499 75.900, 208.682 80.512, 207.407 81.749 C 203.610 85.433, 197.451 96.948, 194.702 105.500 C 172.643 174.147, 175.935 223.997, 204.752 257.662 C 208.595 262.152, 212.728 267.214, 213.938 268.912 C 216.472 272.472, 220.650 273.009, 226.570 270.535 L 230.075 269.071 227.321 264.785 C 223.162 258.314, 221 255.604, 221 256.865 C 221 262.858, 214.158 248.171, 211.047 235.500 C 209.832 230.550, 208.402 225.684, 207.871 224.687 C 207.340 223.691, 207.200 221.947, 207.560 220.812 C 207.963 219.540, 207.829 218.988, 207.209 219.371 C 204.788 220.867, 201.795 190.245, 204.072 187.280 C 204.856 186.260, 204.358 186.461, 202.905 187.750 C 197.725 192.349, 195.314 190.292, 199.944 185.223 C 201.563 183.450, 202.720 182, 202.517 182 C 202.144 182, 212.589 171.545, 223.191 161.305 C 229.421 155.288, 232.165 154.911, 228.851 160.528 C 227.036 163.604, 226.992 164, 228.460 164 C 229.372 164, 229.886 163.624, 229.602 163.165 C 228.897 162.025, 235.867 158.800, 237.223 159.638 C 237.921 160.069, 238.017 159.836, 237.490 158.985 C 236.891 158.015, 237.132 157.836, 238.388 158.319 C 239.332 158.681, 239.852 158.569, 239.543 158.070 C 239.235 157.571, 240.440 156.843, 242.221 156.452 C 244.002 156.060, 249.356 153.706, 254.119 151.221 C 263.676 146.232, 266.513 146.107, 265.354 150.724 C 264.449 154.332, 271.622 148.252, 287 132.378 C 292.775 126.417, 297.871 121.654, 298.324 121.794 C 298.778 121.935, 298.926 121.689, 298.654 121.249 C 297.991 120.176, 306.623 110.317, 307.485 111.163 C 307.856 111.528, 307.427 112.946, 306.530 114.313 C 305.634 115.681, 305.287 116.958, 305.759 117.150 C 306.230 117.343, 308.254 119.975, 310.254 123 C 318.581 135.589, 331.890 149.819, 330.716 144.878 C 327.984 133.378, 327.794 126.664, 330.150 124.887 C 333.605 122.281, 334.960 126.492, 336.959 146.042 C 338.746 163.521, 339.816 164.199, 339.683 147.768 C 339.600 137.493, 339.928 132.672, 340.765 131.835 C 342.584 130.016, 342.790 130.700, 343.828 142.017 C 344.773 152.337, 348.034 179.798, 349.940 193.500 C 351.723 206.324, 352.322 216.317, 351.267 215.665 C 350.688 215.307, 350.014 217.025, 349.655 219.775 C 348.044 232.093, 346.883 238.437, 346.055 239.434 C 345.557 240.034, 344.160 243.219, 342.949 246.512 C 341.739 249.805, 339.981 253.400, 339.044 254.500 C 338.106 255.600, 336.363 258.923, 335.169 261.883 C 332.927 267.449, 332.299 270.808, 334.069 267.769 C 334.624 266.818, 337.152 264.823, 339.688 263.337 L 344.298 260.636 346.449 263.334 L 348.601 266.033 350.857 263.266 C 367.599 242.735, 383.730 177.987, 379.062 150.056 C 374.565 123.148, 365.183 102.236, 340.349 63.762 C 337.957 60.056, 336 56.569, 336 56.012 C 336 55.455, 335.288 55, 334.417 55 C 333.546 55, 333.031 54.438, 333.273 53.750 C 333.521 53.045, 335.139 52.570, 336.985 52.661 L 340.257 52.823 335.121 47.623 C 328.568 40.987, 323.460 37.725, 324.436 40.797 C 325.478 44.083, 323.899 44.026, 316.292 40.502 C 302.037 33.900, 283.463 30.895, 272.500 33.418 M 265.791 49.397 C 262.650 50.688, 259.944 51.331, 259.776 50.827 C 259.473 49.920, 240.578 65.312, 232.132 73.345 C 222.506 82.501, 218.003 91.917, 226.784 84.528 C 228.400 83.168, 229.927 82.260, 230.176 82.510 C 230.426 82.759, 232.401 81.070, 234.565 78.757 C 236.729 76.444, 237.375 75.439, 236 76.525 L 233.500 78.500 235.384 76.274 C 236.420 75.049, 237.604 74.255, 238.016 74.510 C 238.980 75.106, 244.035 71.154, 243.731 70.042 C 243.604 69.579, 243.950 69.111, 244.500 69.001 C 246.996 68.506, 248.997 66.797, 248.368 65.700 C 247.989 65.040, 248.036 64.822, 248.471 65.215 C 249.642 66.272, 253.170 64.084, 252.373 62.795 C 251.960 62.127, 252.149 61.974, 252.853 62.409 C 253.496 62.807, 254.271 62.459, 254.589 61.629 C 255.183 60.081, 266.763 52.801, 271.488 51.004 C 273.997 50.051, 274.533 47.980, 272.438 47.338 C 271.922 47.180, 268.931 48.106, 265.791 49.397 M 221 59.500 C 217.457 63.075, 214.995 65.947, 215.529 65.883 C 216.492 65.767, 228.739 53, 227.887 53 C 227.642 53, 224.543 55.925, 221 59.500 M 330.011 69.487 C 329.332 70.305, 329.026 71.626, 329.332 72.423 C 329.638 73.219, 329.472 74.012, 328.963 74.185 C 327.260 74.765, 332.744 84.703, 336.237 87.367 C 340.117 90.326, 341.803 90.596, 344.427 88.677 C 347.812 86.202, 345.841 81.869, 336.048 70.250 C 333.850 67.642, 331.761 67.378, 330.011 69.487 M 330 75.373 C 330 76.453, 333.972 84, 334.541 84 C 334.816 84, 334.076 82.088, 332.897 79.750 C 330.579 75.153, 330 74.278, 330 75.373 M 318.774 79.094 C 315.860 80.746, 318.710 91, 322.082 91 C 322.652 91, 322.833 91.461, 322.485 92.025 C 322.136 92.588, 322.222 92.967, 322.676 92.866 C 323.129 92.765, 324.333 93.044, 325.351 93.487 C 329.265 95.188, 329.726 89.701, 326.181 83.615 C 323.862 79.635, 320.953 77.859, 318.774 79.094 M 320 88 C 320.589 89.100, 321.295 90, 321.570 90 C 321.845 90, 321.589 89.100, 321 88 C 320.411 86.900, 319.705 86, 319.430 86 C 319.155 86, 319.411 86.900, 320 88 M 356 97.050 C 356 97.627, 356.688 99.429, 357.528 101.055 C 358.369 102.680, 360.353 107.720, 361.938 112.255 C 363.523 116.790, 365.744 123.028, 366.873 126.119 C 369.026 132.013, 370.247 137.037, 370.406 140.655 C 370.458 141.839, 370.725 142.671, 371 142.502 C 371.275 142.333, 371.587 144.642, 371.694 147.632 C 371.800 150.622, 372.563 154.423, 373.389 156.078 C 374.215 157.734, 375.191 161.093, 375.559 163.544 C 376.260 168.220, 378 169.704, 378 165.625 C 378 153.424, 367.030 113.350, 360.242 100.750 C 357.834 96.282, 356 94.682, 356 97.050 M 290.432 103.548 C 281.361 112.647, 258.665 131.922, 250.654 137.329 C 237.517 146.198, 236.415 149.546, 249.117 142 C 252.820 139.800, 256.308 138, 256.868 138 C 257.428 138, 258.515 137.103, 259.283 136.006 C 260.051 134.910, 260.940 134.273, 261.259 134.592 C 261.577 134.911, 262.347 134.220, 262.969 133.058 C 263.591 131.895, 264.505 131.194, 265 131.500 C 265.495 131.806, 266.409 131.105, 267.031 129.942 C 267.653 128.780, 268.410 128.076, 268.713 128.379 C 269.593 129.260, 273.116 126.997, 272.476 125.961 C 272.157 125.445, 272.494 125.252, 273.225 125.533 C 274.877 126.167, 284.907 117.337, 288.940 111.697 C 290.591 109.389, 293.124 105.835, 294.571 103.800 C 299.133 97.379, 296.728 97.233, 290.432 103.548 M 245.444 118.818 C 233.277 124.233, 218.991 136.315, 214.510 144.981 C 212.324 149.208, 215.163 149.225, 217.659 145 C 218.634 143.350, 219.834 142, 220.327 142 C 221.457 142, 238.597 128.374, 240.262 126.152 C 240.943 125.243, 243.177 123.648, 245.226 122.606 C 253.863 118.214, 254.048 114.989, 245.444 118.818 M 278.924 143.750 L 276.500 146.500 279.250 144.076 C 280.762 142.742, 282 141.505, 282 141.326 C 282 140.541, 281.190 141.180, 278.924 143.750 M 362.750 147.571 C 360.541 149.817, 363.360 172.183, 365.737 171.271 C 366.982 170.793, 367.117 169.601, 366.492 164.595 C 366.074 161.243, 365.792 157.037, 365.866 155.250 C 365.939 153.463, 365.579 152, 365.066 152 C 364.553 152, 363.990 150.832, 363.816 149.404 C 363.642 147.976, 363.163 147.151, 362.750 147.571 M 278.264 150.718 C 279.784 150.947, 282.034 150.941, 283.264 150.704 C 284.494 150.467, 283.250 150.279, 280.500 150.286 C 277.750 150.294, 276.744 150.488, 278.264 150.718 M 268.405 153.250 C 266.502 155.498, 266.502 155.499, 268.581 153.748 C 269.726 152.784, 271.035 152.334, 271.491 152.748 C 271.948 153.162, 271.997 152.938, 271.601 152.250 C 270.660 150.615, 270.628 150.625, 268.405 153.250 M 383.370 163 C 383.370 168.775, 383.535 171.137, 383.737 168.250 C 383.939 165.363, 383.939 160.637, 383.737 157.750 C 383.535 154.863, 383.370 157.225, 383.370 163 M 178.158 169 C 178.158 170.375, 178.385 170.938, 178.662 170.250 C 178.940 169.563, 178.940 168.438, 178.662 167.750 C 178.385 167.063, 178.158 167.625, 178.158 169 M 217.405 170.250 L 215.500 172.500 217.750 170.595 C 219.864 168.805, 220.455 168, 219.655 168 C 219.465 168, 218.453 169.012, 217.405 170.250 M 181.689 179.694 C 181.394 180.171, 181.846 184.373, 182.693 189.031 C 183.540 193.689, 184.315 198.183, 184.414 199.018 C 184.513 199.852, 184.956 201.120, 185.397 201.834 C 185.839 202.549, 185.934 203.399, 185.609 203.725 C 185.284 204.050, 185.528 204.931, 186.151 205.682 C 186.775 206.434, 187 207.334, 186.651 207.682 C 186.303 208.031, 186.519 208.920, 187.131 209.658 C 187.744 210.396, 187.910 211, 187.500 211 C 187.090 211, 187.214 211.563, 187.776 212.250 C 188.337 212.938, 189.518 215.975, 190.400 219 C 192.655 226.730, 198.204 240, 199.182 240 C 200.532 240, 200.126 237.700, 197.669 231.432 C 196.387 228.161, 195.546 224.863, 195.799 224.103 C 196.076 223.273, 195.813 222.998, 195.141 223.413 C 194.439 223.846, 194.236 223.549, 194.594 222.615 C 195.275 220.841, 189.943 203.917, 188.906 204.558 C 188.510 204.803, 188.422 204.102, 188.710 203.001 C 189.014 201.838, 188.741 201, 188.058 201 C 187.411 201, 187.160 200.550, 187.500 200 C 187.840 199.450, 187.767 198.438, 187.337 197.750 C 186.419 196.281, 186.258 195.559, 184.942 187.022 C 183.963 180.673, 182.760 177.962, 181.689 179.694 M 213.636 232.359 C 214 233.382, 215.418 235.407, 216.788 236.859 C 219.643 239.887, 218.362 237.099, 215.015 233 C 213.578 231.240, 213.170 231.050, 213.636 232.359 M 219 233.313 C 219 233.485, 220.463 234.948, 222.250 236.563 L 225.500 239.500 222.563 236.250 C 219.825 233.221, 219 232.540, 219 233.313 M 337.405 270.250 L 335.500 272.500 337.750 270.595 C 339.864 268.805, 340.455 268, 339.655 268 C 339.465 268, 338.453 269.012, 337.405 270.250 M 349.924 273.750 L 347.500 276.500 350.250 274.076 C 352.820 271.810, 353.459 271, 352.674 271 C 352.495 271, 351.258 272.238, 349.924 273.750 M 222 280.969 C 222 281.501, 222.675 281.678, 223.500 281.362 C 224.325 281.045, 225 280.609, 225 280.393 C 225 280.177, 224.325 280, 223.500 280 C 222.675 280, 222 280.436, 222 280.969 M 259.762 334.707 C 261.006 334.946, 262.806 334.937, 263.762 334.687 C 264.718 334.437, 263.700 334.241, 261.500 334.252 C 259.300 334.263, 258.518 334.468, 259.762 334.707 M 299.250 334.689 C 300.212 334.941, 301.788 334.941, 302.750 334.689 C 303.712 334.438, 302.925 334.232, 301 334.232 C 299.075 334.232, 298.288 334.438, 299.250 334.689 M 154.750 336.706 C 155.988 336.944, 158.012 336.944, 159.250 336.706 C 160.488 336.467, 159.475 336.272, 157 336.272 C 154.525 336.272, 153.512 336.467, 154.750 336.706 M 402.750 336.706 C 403.988 336.944, 406.012 336.944, 407.250 336.706 C 408.488 336.467, 407.475 336.272, 405 336.272 C 402.525 336.272, 401.512 336.467, 402.750 336.706" stroke="none" fill="#4a2c27" fill-rule="evenodd"/><path d="M 238 278.660 C 229.865 279.221, 222.675 281.075, 223.895 282.295 C 227.545 285.945, 224.178 288.093, 219.569 285.055 C 214.491 281.707, 195.688 288.091, 177.630 299.294 L 173.760 301.695 178.348 302.324 C 190.065 303.930, 211.221 305.142, 218.014 304.596 C 222.710 304.219, 230.021 304.595, 237.514 305.598 C 244.106 306.481, 254.900 307.182, 261.500 307.156 C 299.578 307.006, 335.528 306.101, 342.500 305.119 C 346.900 304.499, 357.475 303.781, 366 303.525 C 374.525 303.268, 383.075 302.681, 385 302.221 L 388.500 301.385 384.463 298.814 C 368.036 288.355, 348.562 281.752, 343.909 285.064 C 340.428 287.543, 340.609 287.601, 339 283.500 C 337.498 279.672, 336.497 279.310, 333.559 281.532 C 330.672 283.716, 326 283.464, 326 281.125 C 326 276.883, 313.757 277.540, 308 282.092 C 296.271 291.366, 266.972 291.845, 255.660 282.947 C 254.197 281.796, 253 281.203, 253 281.627 C 253 282.052, 252.495 281.895, 251.878 281.278 C 251.261 280.661, 250.208 280.367, 249.538 280.624 C 248.868 280.881, 247.743 280.396, 247.038 279.546 C 246.332 278.695, 245.023 278.079, 244.128 278.175 C 243.232 278.271, 240.475 278.489, 238 278.660 M 232.500 326.181 C 223.150 326.691, 206.003 326.878, 194.397 326.595 C 175.383 326.131, 153.518 327.050, 147.700 328.557 C 144.829 329.300, 141.193 336, 143.661 336 C 144.551 336, 145.893 335.212, 146.642 334.250 C 147.927 332.600, 147.968 332.604, 147.362 334.336 C 146.742 336.108, 148.276 336.143, 191.110 335.336 C 247.720 334.270, 313.724 334.272, 373.704 335.342 L 420.908 336.185 418.995 332.225 L 417.082 328.265 408.791 327.522 C 399.100 326.653, 319.353 325.559, 304 326.084 C 287.847 326.637, 271.560 326.559, 260 325.874 C 254.225 325.532, 241.850 325.670, 232.500 326.181" stroke="none" fill="#dd5a5a" fill-rule="evenodd"/><path d="M 292.405 134.250 L 290.500 136.500 292.750 134.595 C 294.864 132.805, 295.455 132, 294.655 132 C 294.465 132, 293.453 133.012, 292.405 134.250 M 281.704 145.204 C 281.042 145.625, 283.650 145.924, 287.500 145.869 C 294.750 145.764, 294.638 145.350, 287.204 144.772 C 284.842 144.589, 282.367 144.783, 281.704 145.204 M 301.750 145.732 C 304.087 145.943, 307.913 145.943, 310.250 145.732 C 312.587 145.522, 310.675 145.349, 306 145.349 C 301.325 145.349, 299.413 145.522, 301.750 145.732 M 278.250 151.716 C 279.762 151.945, 282.238 151.945, 283.750 151.716 C 285.262 151.487, 284.025 151.300, 281 151.300 C 277.975 151.300, 276.738 151.487, 278.250 151.716 M 245.264 179.718 C 246.784 179.947, 249.034 179.941, 250.264 179.704 C 251.494 179.467, 250.250 179.279, 247.500 179.286 C 244.750 179.294, 243.744 179.488, 245.264 179.718 M 306.750 179.706 C 307.988 179.944, 310.012 179.944, 311.250 179.706 C 312.488 179.467, 311.475 179.272, 309 179.272 C 306.525 179.272, 305.512 179.467, 306.750 179.706 M 208.158 185 C 208.158 186.375, 208.385 186.938, 208.662 186.250 C 208.940 185.563, 208.940 184.438, 208.662 183.750 C 208.385 183.063, 208.158 183.625, 208.158 185 M 208.232 201 C 208.232 202.925, 208.438 203.713, 208.689 202.750 C 208.941 201.787, 208.941 200.213, 208.689 199.250 C 208.438 198.287, 208.232 199.075, 208.232 201 M 333.405 234.250 L 331.500 236.500 333.750 234.595 C 335.864 232.805, 336.455 232, 335.655 232 C 335.465 232, 334.453 233.012, 333.405 234.250 M 269.269 233.693 C 270.242 233.947, 271.592 233.930, 272.269 233.656 C 272.946 233.382, 272.150 233.175, 270.500 233.195 C 268.850 233.215, 268.296 233.439, 269.269 233.693 M 273.750 237.662 C 274.438 237.940, 275.563 237.940, 276.250 237.662 C 276.938 237.385, 276.375 237.158, 275 237.158 C 273.625 237.158, 273.063 237.385, 273.750 237.662 M 227.500 241 C 228.495 242.100, 229.535 243, 229.810 243 C 230.085 243, 229.495 242.100, 228.500 241 C 227.505 239.900, 226.465 239, 226.190 239 C 225.915 239, 226.505 239.900, 227.500 241 M 293.158 261 C 293.158 262.375, 293.385 262.938, 293.662 262.250 C 293.940 261.563, 293.940 260.438, 293.662 259.750 C 293.385 259.063, 293.158 259.625, 293.158 261 M 165.750 326.662 C 166.438 326.940, 167.563 326.940, 168.250 326.662 C 168.938 326.385, 168.375 326.158, 167 326.158 C 165.625 326.158, 165.063 326.385, 165.750 326.662 M 394.750 326.662 C 395.438 326.940, 396.563 326.940, 397.250 326.662 C 397.938 326.385, 397.375 326.158, 396 326.158 C 394.625 326.158, 394.063 326.385, 394.750 326.662" stroke="none" fill="#d28749" fill-rule="evenodd"/><path d="M 255.500 26 C 255.160 26.550, 255.332 27, 255.882 27 C 256.432 27, 257.160 26.550, 257.500 26 C 257.840 25.450, 257.668 25, 257.118 25 C 256.568 25, 255.840 25.450, 255.500 26 M 263.250 32.745 C 257.836 32.938, 254 33.499, 254 34.097 C 254 34.658, 253.592 34.866, 253.094 34.558 C 249.907 32.588, 227.145 41.094, 217 48.045 C 183.776 70.810, 164.946 134.177, 173.331 195 C 178.519 232.636, 187.848 251.490, 210.395 269.914 C 217.561 275.770, 217.689 275.825, 222.070 274.980 C 224.507 274.510, 228.637 273.845, 231.250 273.501 C 237.045 272.740, 237.041 272.853, 231.528 265.481 C 225.635 257.603, 216.992 243.046, 217.032 241.067 C 217.064 239.497, 219.440 241.820, 220.232 244.196 C 220.399 244.698, 221.379 245.233, 222.409 245.384 C 223.695 245.572, 226.511 249.938, 231.391 259.308 C 239.845 275.539, 241.453 276.890, 235.489 262.750 C 233.112 257.113, 231.378 252.288, 231.638 252.029 C 232.365 251.301, 233.669 253.745, 237.677 263.352 C 242.631 275.227, 246.785 277.295, 243.667 266.333 C 242.773 263.193, 242.295 260.372, 242.603 260.064 C 243.639 259.027, 245.651 262.876, 246.990 268.459 C 248.837 276.156, 252 276.497, 252 269 C 252 262.717, 253.945 262.334, 256.548 268.106 C 258.090 271.525, 258.522 271.902, 259.129 270.356 C 260.768 266.191, 260.116 264.184, 256.896 263.477 C 247.571 261.429, 231.321 251.343, 223.340 242.649 C 220.235 239.267, 218.058 237.132, 218.502 237.905 C 219.061 238.877, 218.933 239.077, 218.086 238.553 C 217.414 238.138, 217.093 237.201, 217.372 236.472 C 217.652 235.743, 217.146 234.551, 216.249 233.823 C 215.289 233.045, 214.904 232.980, 215.314 233.665 C 215.698 234.305, 215.496 235.001, 214.865 235.212 C 213.318 235.727, 219.430 254.882, 221.914 257.301 C 222.932 258.291, 225.164 261.353, 226.874 264.105 L 229.985 269.108 226.525 270.554 C 220.648 273.009, 216.467 272.464, 213.938 268.912 C 212.728 267.214, 208.595 262.152, 204.752 257.662 C 175.935 223.997, 172.643 174.147, 194.702 105.500 C 197.451 96.948, 203.610 85.433, 207.407 81.749 C 208.682 80.512, 212.499 75.900, 215.890 71.500 C 232.804 49.550, 249.049 38.639, 272.500 33.479 C 275.800 32.753, 277.150 32.217, 275.500 32.287 C 273.850 32.357, 268.337 32.564, 263.250 32.745 M 288.269 32.693 C 289.242 32.947, 290.592 32.930, 291.269 32.656 C 291.946 32.382, 291.150 32.175, 289.500 32.195 C 287.850 32.215, 287.296 32.439, 288.269 32.693 M 320.490 36.990 C 322.065 38.634, 323.576 39.757, 323.848 39.486 C 324.508 38.826, 319.925 34, 318.639 34 C 318.082 34, 318.915 35.345, 320.490 36.990 M 335 47.500 C 336.866 49.425, 338.617 51, 338.892 51 C 339.167 51, 337.866 49.425, 336 47.500 C 334.134 45.575, 332.383 44, 332.108 44 C 331.833 44, 333.134 45.575, 335 47.500 M 272 47.924 C 273.333 48.880, 273.333 49.120, 272 50.076 C 270.667 51.033, 270.667 51.107, 272 50.743 C 272.825 50.518, 273.500 49.733, 273.500 49 C 273.500 48.267, 272.825 47.482, 272 47.257 C 270.667 46.893, 270.667 46.967, 272 47.924 M 264 50 C 263.175 50.533, 262.950 50.969, 263.500 50.969 C 264.050 50.969, 265.175 50.533, 266 50 C 266.825 49.467, 267.050 49.031, 266.500 49.031 C 265.950 49.031, 264.825 49.467, 264 50 M 252.186 56.048 C 243.045 63.743, 243.119 64.143, 252.500 57.741 C 256.625 54.926, 260 52.033, 260 51.311 C 260 49.447, 260.099 49.387, 252.186 56.048 M 334.750 52.662 C 335.438 52.940, 336.563 52.940, 337.250 52.662 C 337.938 52.385, 337.375 52.158, 336 52.158 C 334.625 52.158, 334.063 52.385, 334.750 52.662 M 221 59.500 C 217.457 63.075, 214.995 65.947, 215.529 65.883 C 216.492 65.767, 228.739 53, 227.887 53 C 227.642 53, 224.543 55.925, 221 59.500 M 343 60.500 C 344.866 62.425, 346.617 64, 346.892 64 C 347.167 64, 345.866 62.425, 344 60.500 C 342.134 58.575, 340.383 57, 340.108 57 C 339.833 57, 341.134 58.575, 343 60.500 M 241.405 65.250 L 239.500 67.500 241.750 65.595 C 242.988 64.547, 244 63.535, 244 63.345 C 244 62.545, 243.195 63.136, 241.405 65.250 M 230.971 74.750 L 224.500 81.500 231.250 75.029 C 237.520 69.018, 238.457 68, 237.721 68 C 237.568 68, 234.530 71.037, 230.971 74.750 M 239.405 72.250 L 237.500 74.500 239.750 72.595 C 241.864 70.805, 242.455 70, 241.655 70 C 241.465 70, 240.453 71.013, 239.405 72.250 M 329.003 76.507 C 330.746 81.093, 332.772 84.484, 334.942 86.448 C 336.476 87.836, 336.077 86.709, 333.545 82.504 C 331.595 79.267, 330 76.029, 330 75.309 C 330 74.589, 329.561 74, 329.025 74 C 328.397 74, 328.389 74.893, 329.003 76.507 M 227.946 82.750 L 224.500 86.500 228.250 83.054 C 230.313 81.158, 232 79.471, 232 79.304 C 232 78.540, 231.154 79.260, 227.946 82.750 M 317.004 83.583 C 317.008 84.706, 320.783 91, 321.452 91 C 321.716 91, 320.966 89.313, 319.786 87.250 C 317.141 82.630, 316.999 82.444, 317.004 83.583 M 361.031 103.500 C 361.031 104.050, 361.467 105.175, 362 106 C 362.533 106.825, 362.969 107.050, 362.969 106.500 C 362.969 105.950, 362.533 104.825, 362 104 C 361.467 103.175, 361.031 102.950, 361.031 103.500 M 287.411 106.779 C 285.711 108.276, 278.399 114.636, 271.161 120.914 C 263.922 127.192, 258 132.499, 258 132.709 C 258 133.809, 275.198 119.763, 282.763 112.484 C 291.163 104.401, 293.834 101.123, 287.411 106.779 M 286.473 112.250 L 279.500 119.500 286.750 112.527 C 293.484 106.050, 294.457 105, 293.723 105 C 293.571 105, 290.308 108.263, 286.473 112.250 M 361.086 110 C 361.055 110.825, 361.467 112.175, 362 113 C 363.181 114.828, 363.181 113.249, 362 110.500 C 361.433 109.181, 361.122 109.011, 361.086 110 M 304.642 115.771 C 303.670 117.342, 325.515 145.818, 326.747 144.586 C 327.015 144.318, 324.226 140.589, 320.550 136.300 C 316.874 132.010, 312.235 126.025, 310.241 123 C 308.248 119.975, 306.250 117.349, 305.802 117.165 C 305.354 116.980, 305.242 116.418, 305.553 115.915 C 305.864 115.412, 305.893 115, 305.618 115 C 305.343 115, 304.904 115.347, 304.642 115.771 M 363.573 117 C 363.941 118.375, 364.659 120.175, 365.169 121 C 365.813 122.042, 365.892 121.737, 365.427 120 C 365.059 118.625, 364.341 116.825, 363.831 116 C 363.187 114.958, 363.108 115.263, 363.573 117 M 251 116.892 C 251 117.566, 250.554 117.842, 250.008 117.505 C 249.462 117.168, 248.225 117.388, 247.258 117.994 C 245.791 118.913, 245.912 118.981, 247.992 118.404 C 250.308 117.761, 250.383 117.846, 249.051 119.606 C 248.056 120.919, 248.349 120.819, 250.003 119.278 C 251.315 118.056, 252.076 116.743, 251.694 116.361 C 251.313 115.979, 251 116.218, 251 116.892 M 233.953 124.953 C 230.902 127.072, 227.752 129.602, 226.953 130.575 C 226.154 131.548, 227.697 130.673, 230.383 128.629 C 233.069 126.586, 236.556 124.247, 238.133 123.431 C 240.885 122.008, 241.831 120.944, 240.250 121.051 C 239.838 121.079, 237.004 122.835, 233.953 124.953 M 244.441 122.555 C 242.577 124.049, 242.589 124.067, 244.750 123.020 C 245.988 122.420, 247 121.720, 247 121.465 C 247 120.700, 246.481 120.921, 244.441 122.555 M 293.553 128.915 C 293.231 129.436, 293.394 130.125, 293.915 130.447 C 294.436 130.769, 295.125 130.606, 295.447 130.085 C 295.769 129.564, 295.606 128.875, 295.085 128.553 C 294.564 128.231, 293.875 128.394, 293.553 128.915 M 340.346 132.249 C 339.921 132.936, 339.653 139.772, 339.750 147.441 C 339.852 155.441, 339.505 161.891, 338.938 162.575 C 338.256 163.397, 338.422 163.948, 339.474 164.352 C 340.804 164.862, 341 162.828, 341 148.552 C 341 136.379, 341.321 132.037, 342.250 131.662 C 343.151 131.299, 343.168 131.136, 342.309 131.079 C 341.654 131.036, 340.771 131.562, 340.346 132.249 M 335.195 136.500 C 335.215 138.150, 335.439 138.704, 335.693 137.731 C 335.947 136.758, 335.930 135.408, 335.656 134.731 C 335.382 134.054, 335.175 134.850, 335.195 136.500 M 222.437 138.250 L 219.500 141.500 222.750 138.563 C 225.779 135.825, 226.460 135, 225.687 135 C 225.515 135, 224.052 136.463, 222.437 138.250 M 284.838 138.667 C 283.062 140.500, 281.976 142, 282.426 142 C 282.877 142, 282.651 142.787, 281.925 143.750 C 281.199 144.713, 282.944 143.267, 285.803 140.538 C 291.772 134.838, 291.417 135.333, 289.535 135.333 C 288.729 135.333, 286.615 136.833, 284.838 138.667 M 370.121 138.023 C 371.635 142.501, 372.488 143.370, 371.570 139.500 C 371.179 137.850, 370.428 136.060, 369.902 135.523 C 369.376 134.985, 369.475 136.110, 370.121 138.023 M 219.405 138.250 L 217.500 140.500 219.750 138.595 C 221.864 136.805, 222.455 136, 221.655 136 C 221.465 136, 220.453 137.012, 219.405 138.250 M 285.437 139.250 L 282.500 142.500 285.750 139.563 C 288.779 136.825, 289.460 136, 288.687 136 C 288.515 136, 287.052 137.463, 285.437 139.250 M 248 139.089 C 245.846 140.851, 245.804 140.986, 247.694 140.062 C 248.901 139.472, 250.165 138.542, 250.503 137.995 C 251.406 136.534, 250.800 136.799, 248 139.089 M 342.261 144.005 C 342.170 147.293, 342.713 151.463, 343.469 153.270 C 349.618 167.988, 345.473 249.108, 338.357 253.300 C 337.611 253.740, 337 254.627, 337 255.272 C 337 257.868, 340.905 252.127, 342.960 246.512 C 344.164 243.219, 345.557 240.034, 346.055 239.434 C 346.883 238.437, 348.044 232.093, 349.655 219.775 C 350.014 217.025, 350.688 215.307, 351.267 215.665 C 352.322 216.317, 351.723 206.324, 349.940 193.500 C 347.755 177.797, 344.692 152.095, 344.279 146 C 343.707 137.560, 342.473 136.341, 342.261 144.005 M 250.441 140.555 C 248.577 142.049, 248.589 142.067, 250.750 141.020 C 251.988 140.420, 253 139.720, 253 139.465 C 253 138.700, 252.481 138.921, 250.441 140.555 M 336.252 144.500 C 336.263 146.700, 336.468 147.482, 336.707 146.238 C 336.946 144.994, 336.937 143.194, 336.687 142.238 C 336.437 141.282, 336.241 142.300, 336.252 144.500 M 245.441 143.555 C 243.577 145.049, 243.589 145.067, 245.750 144.020 C 246.988 143.420, 248 142.720, 248 142.465 C 248 141.700, 247.481 141.921, 245.441 143.555 M 273.924 148.750 L 271.500 151.500 274.043 149.270 C 276.489 147.125, 277.450 147.028, 299.043 146.750 L 321.500 146.460 298.924 146.230 L 276.349 146 273.924 148.750 M 362.667 147.667 C 360.599 149.734, 363.416 172.161, 365.636 171.309 C 366.540 170.963, 366.723 170.357, 366.144 169.633 C 364.938 168.126, 362.644 151.468, 363.298 148.967 C 363.848 146.865, 363.724 146.609, 362.667 147.667 M 383.195 150.500 C 383.215 152.150, 383.439 152.704, 383.693 151.731 C 383.947 150.758, 383.930 149.408, 383.656 148.731 C 383.382 148.054, 383.175 148.850, 383.195 150.500 M 285 150.393 C 285 150.609, 285.675 151.045, 286.500 151.362 C 287.325 151.678, 288 151.501, 288 150.969 C 288 150.436, 287.325 150, 286.500 150 C 285.675 150, 285 150.177, 285 150.393 M 306.731 153.080 C 307.085 154.432, 307.538 154.886, 307.788 154.137 C 308.028 153.415, 307.750 152.350, 307.168 151.768 C 306.426 151.026, 306.296 151.417, 306.731 153.080 M 290.232 155 C 290.232 156.925, 290.438 157.713, 290.689 156.750 C 290.941 155.787, 290.941 154.213, 290.689 153.250 C 290.438 152.287, 290.232 153.075, 290.232 155 M 328 153 C 328 153.550, 328.450 154, 329 154 C 329.550 154, 330 153.550, 330 153 C 330 152.450, 329.550 152, 329 152 C 328.450 152, 328 152.450, 328 153 M 228.293 156.627 C 228.638 156.972, 228.263 158.524, 227.460 160.077 C 225.085 164.671, 225.829 165.850, 228.358 161.500 C 230.701 157.470, 230.812 156, 228.774 156 C 228.165 156, 227.949 156.282, 228.293 156.627 M 221 163.500 C 218.571 165.975, 216.809 168, 217.084 168 C 217.359 168, 219.571 165.975, 222 163.500 C 224.429 161.025, 226.191 159, 225.916 159 C 225.641 159, 223.429 161.025, 221 163.500 M 375.158 161 C 375.158 162.375, 375.385 162.938, 375.662 162.250 C 375.940 161.563, 375.940 160.438, 375.662 159.750 C 375.385 159.063, 375.158 159.625, 375.158 161 M 377 162.918 C 377 163.973, 376.727 165.548, 376.393 166.418 C 376.059 167.288, 376.192 168, 376.689 168 C 377.185 168, 377.697 166.425, 377.827 164.500 C 377.957 162.575, 377.824 161, 377.531 161 C 377.239 161, 377 161.863, 377 162.918 M 343.328 169.500 C 343.333 173.350, 343.513 174.802, 343.730 172.728 C 343.946 170.653, 343.943 167.503, 343.722 165.728 C 343.501 163.952, 343.324 165.650, 343.328 169.500 M 366.232 166 C 366.232 167.925, 366.438 168.713, 366.689 167.750 C 366.941 166.787, 366.941 165.213, 366.689 164.250 C 366.438 163.287, 366.232 164.075, 366.232 166 M 178.158 169 C 178.158 170.375, 178.385 170.938, 178.662 170.250 C 178.940 169.563, 178.940 168.438, 178.662 167.750 C 178.385 167.063, 178.158 167.625, 178.158 169 M 240 171.250 C 240 172.121, 239.438 173.060, 238.750 173.338 C 237.771 173.733, 237.778 173.859, 238.781 173.921 C 240.207 174.009, 241.599 171.266, 240.624 170.290 C 240.281 169.947, 240 170.379, 240 171.250 M 212.924 174.750 L 210.500 177.500 213.250 175.076 C 215.820 172.810, 216.459 172, 215.674 172 C 215.495 172, 214.258 173.238, 212.924 174.750 M 305.014 173.414 C 305.662 174.062, 306.338 174.062, 306.986 173.414 C 307.633 172.767, 307.295 172.429, 306 172.429 C 304.705 172.429, 304.367 172.767, 305.014 173.414 M 207 177.500 C 204.571 179.975, 202.809 182, 203.084 182 C 203.359 182, 205.571 179.975, 208 177.500 C 210.429 175.025, 212.191 173, 211.916 173 C 211.641 173, 209.429 175.025, 207 177.500 M 383.252 176.500 C 383.263 178.700, 383.468 179.482, 383.707 178.238 C 383.946 176.994, 383.937 175.194, 383.687 174.238 C 383.437 173.282, 383.241 174.300, 383.252 176.500 M 181.459 180.067 C 181.096 180.653, 181.070 181.403, 181.400 181.733 C 181.730 182.063, 182 181.782, 182 181.108 C 182 180.434, 182.520 180.203, 183.155 180.595 C 183.870 181.038, 184.038 180.870, 183.595 180.155 C 182.711 178.724, 182.299 178.707, 181.459 180.067 M 343.717 179.750 C 343.496 180.162, 343.649 181.625, 344.058 183 C 344.752 185.337, 344.807 185.288, 344.900 182.250 C 344.996 179.115, 344.555 178.183, 343.717 179.750 M 184.195 186.500 C 184.215 188.150, 184.439 188.704, 184.693 187.731 C 184.947 186.758, 184.930 185.408, 184.656 184.731 C 184.382 184.054, 184.175 184.850, 184.195 186.500 M 201.490 187.010 C 199.915 188.655, 199.082 190, 199.639 190 C 200.925 190, 205.508 185.174, 204.848 184.514 C 204.576 184.243, 203.065 185.366, 201.490 187.010 M 205.158 204 C 205.158 205.375, 205.385 205.938, 205.662 205.250 C 205.940 204.563, 205.940 203.438, 205.662 202.750 C 205.385 202.063, 205.158 202.625, 205.158 204 M 212.672 229.920 C 213.316 230.648, 213.606 231.864, 213.315 232.622 C 213.024 233.380, 213.011 234, 213.286 234 C 214.722 234, 214.652 230.973, 213.191 229.871 C 211.796 228.820, 211.705 228.829, 212.672 229.920 M 337.405 232.250 L 335.500 234.500 337.750 232.595 C 339.864 230.805, 340.455 230, 339.655 230 C 339.465 230, 338.453 231.012, 337.405 232.250 M 268.250 234.689 C 269.212 234.941, 270.788 234.941, 271.750 234.689 C 272.712 234.438, 271.925 234.232, 270 234.232 C 268.075 234.232, 267.288 234.438, 268.250 234.689 M 338.459 236.066 C 338.097 236.652, 335.954 238.469, 333.698 240.104 C 327.947 244.270, 317.919 273.740, 322.557 272.847 C 323.907 272.587, 325.081 270.058, 327.128 262.999 C 332.307 245.137, 333.536 241.655, 334.811 241.230 C 335.743 240.919, 335.907 241.572, 335.418 243.652 C 334.788 246.333, 327.936 267.452, 326.464 271.250 C 325.935 272.615, 326.304 272.997, 328.143 272.985 C 329.931 272.973, 330.156 272.752, 329.076 272.068 C 327.887 271.316, 328.127 270.120, 330.523 264.833 C 332.970 259.436, 340.243 235, 339.403 235 C 339.246 235, 338.822 235.480, 338.459 236.066 M 324.254 246.240 C 321.293 248.009, 320.532 251.341, 322.526 253.802 C 322.661 253.968, 323.954 251.987, 325.400 249.400 C 328.508 243.839, 328.465 243.722, 324.254 246.240 M 316.873 250.684 C 314.593 252.099, 314.170 253.183, 313.669 258.907 C 313.351 262.533, 312.781 267.452, 312.402 269.838 C 311.339 276.534, 315.829 275.662, 317.564 268.836 C 318.735 264.227, 320.484 248.975, 319.835 249.027 C 319.651 249.041, 318.318 249.787, 316.873 250.684 M 225 253 C 225.589 254.100, 226.295 255, 226.570 255 C 226.845 255, 226.589 254.100, 226 253 C 225.411 251.900, 224.705 251, 224.430 251 C 224.155 251, 224.411 251.900, 225 253 M 304.178 257.119 C 299.233 259.351, 297.968 260.356, 298.369 261.736 C 298.650 262.706, 299.436 265.525, 300.115 268 L 301.349 272.500 302.230 267.500 C 303.761 258.813, 304.012 258, 305.167 258 C 305.972 258, 306.104 260.717, 305.627 267.500 C 304.564 282.631, 306.626 281.188, 309.570 264.742 C 311.657 253.086, 312.010 253.585, 304.178 257.119 M 294.158 260 C 294.158 261.375, 294.385 261.938, 294.662 261.250 C 294.940 260.563, 294.940 259.438, 294.662 258.750 C 294.385 258.063, 294.158 258.625, 294.158 260 M 333.624 263.539 C 332.659 266.053, 332.943 266.702, 334.122 264.675 C 334.706 263.671, 334.973 262.639, 334.715 262.382 C 334.458 262.124, 333.966 262.645, 333.624 263.539 M 341.515 266.976 C 341.150 267.567, 341.407 267.926, 342.087 267.775 C 342.767 267.624, 343.655 268.625, 344.062 270 C 344.719 272.225, 344.812 272.266, 344.900 270.372 C 345.019 267.835, 342.528 265.336, 341.515 266.976 M 331.702 268.333 C 331.421 269.067, 331.780 269.667, 332.500 269.667 C 333.220 269.667, 333.579 269.067, 333.298 268.333 C 333.016 267.600, 332.657 267, 332.500 267 C 332.343 267, 331.984 267.600, 331.702 268.333 M 255.032 274.191 C 255.014 275.121, 255.480 276.179, 256.067 276.541 C 257.829 277.630, 258.076 276.482, 256.521 274.427 C 255.241 272.735, 255.060 272.706, 255.032 274.191 M 341.667 281.667 C 341.300 282.033, 341 282.798, 341 283.367 C 341 283.993, 341.466 283.934, 342.183 283.217 C 342.834 282.566, 343.134 281.801, 342.850 281.517 C 342.566 281.233, 342.033 281.300, 341.667 281.667 M 270.250 334.716 C 271.762 334.945, 274.238 334.945, 275.750 334.716 C 277.262 334.487, 276.025 334.300, 273 334.300 C 269.975 334.300, 268.738 334.487, 270.250 334.716 M 286.768 334.725 C 288.565 334.947, 291.265 334.943, 292.768 334.715 C 294.271 334.486, 292.800 334.304, 289.500 334.310 C 286.200 334.315, 284.971 334.502, 286.768 334.725 M 211.250 335.689 C 212.213 335.941, 213.787 335.941, 214.750 335.689 C 215.713 335.438, 214.925 335.232, 213 335.232 C 211.075 335.232, 210.287 335.438, 211.250 335.689 M 343.750 335.723 C 345.538 335.945, 348.462 335.945, 350.250 335.723 C 352.038 335.502, 350.575 335.320, 347 335.320 C 343.425 335.320, 341.962 335.502, 343.750 335.723 M 163.750 336.723 C 165.537 336.945, 168.463 336.945, 170.250 336.723 C 172.037 336.502, 170.575 336.320, 167 336.320 C 163.425 336.320, 161.963 336.502, 163.750 336.723 M 392.768 336.725 C 394.565 336.947, 397.265 336.943, 398.768 336.715 C 400.271 336.486, 398.800 336.304, 395.500 336.310 C 392.200 336.315, 390.971 336.502, 392.768 336.725 M 432.250 337.689 C 433.212 337.941, 434.788 337.941, 435.750 337.689 C 436.712 337.438, 435.925 337.232, 434 337.232 C 432.075 337.232, 431.288 337.438, 432.250 337.689 M 277.750 341.662 C 278.438 341.940, 279.563 341.940, 280.250 341.662 C 280.938 341.385, 280.375 341.158, 279 341.158 C 277.625 341.158, 277.063 341.385, 277.750 341.662 M 282.750 341.662 C 283.438 341.940, 284.563 341.940, 285.250 341.662 C 285.938 341.385, 285.375 341.158, 284 341.158 C 282.625 341.158, 282.063 341.385, 282.750 341.662 M 224.750 342.662 C 225.438 342.940, 226.563 342.940, 227.250 342.662 C 227.938 342.385, 227.375 342.158, 226 342.158 C 224.625 342.158, 224.063 342.385, 224.750 342.662 M 335.269 342.693 C 336.242 342.947, 337.592 342.930, 338.269 342.656 C 338.946 342.382, 338.150 342.175, 336.500 342.195 C 334.850 342.215, 334.296 342.439, 335.269 342.693 M 124.250 343.716 C 125.763 343.945, 128.238 343.945, 129.750 343.716 C 131.262 343.487, 130.025 343.300, 127 343.300 C 123.975 343.300, 122.737 343.487, 124.250 343.716 M 150.280 343.736 C 152.909 343.943, 156.959 343.940, 159.280 343.731 C 161.601 343.521, 159.450 343.352, 154.500 343.355 C 149.550 343.358, 147.651 343.530, 150.280 343.736 M 402.750 343.732 C 405.087 343.943, 408.913 343.943, 411.250 343.732 C 413.587 343.522, 411.675 343.349, 407 343.349 C 402.325 343.349, 400.413 343.522, 402.750 343.732 M 436.250 343.689 C 437.212 343.941, 438.788 343.941, 439.750 343.689 C 440.712 343.438, 439.925 343.232, 438 343.232 C 436.075 343.232, 435.288 343.438, 436.250 343.689 M 94.252 426.500 C 94.263 428.700, 94.468 429.482, 94.707 428.238 C 94.946 426.994, 94.937 425.194, 94.687 424.238 C 94.437 423.282, 94.241 424.300, 94.252 426.500" stroke="none" fill="#462a25" fill-rule="evenodd"/><path d="M 336 55.977 C 336 56.553, 337.957 60.056, 340.349 63.762 C 365.183 102.236, 374.565 123.148, 379.062 150.056 C 383.730 177.987, 367.599 242.735, 350.857 263.266 L 348.601 266.033 346.449 263.334 L 344.298 260.636 339.701 263.330 C 334.592 266.323, 334.545 266.377, 333.619 270.250 C 333.122 272.332, 333.331 273, 334.481 273 C 335.316 273, 336 272.573, 336 272.051 C 336 271.529, 337.611 269.873, 339.580 268.371 C 343.736 265.201, 345.294 266.214, 344.735 271.721 C 343.153 287.320, 360.502 262.876, 368.422 238.346 C 389.946 171.688, 388.598 131.455, 363.372 87.661 C 354.732 72.663, 336 50.979, 336 55.977 M 248.433 65.759 C 239.680 72.598, 230 81.301, 230 82.330 C 230 82.817, 232.813 80.611, 236.250 77.429 C 239.688 74.246, 245.313 69.431, 248.750 66.730 C 254.185 62.458, 255.742 60.973, 254.750 61.009 C 254.613 61.014, 251.770 63.151, 248.433 65.759 M 329.969 69.537 C 328.915 70.807, 329.112 71.972, 331.097 76.224 C 336.988 88.848, 340.152 91.803, 344.427 88.677 C 347.812 86.202, 345.841 81.869, 336.048 70.250 C 333.834 67.623, 331.759 67.380, 329.969 69.537 M 318.513 79.367 C 316.589 80.773, 319.049 86.773, 323.794 92.250 C 327.946 97.043, 330.178 91.916, 326.833 85.268 C 323.875 79.391, 321.136 77.449, 318.513 79.367 M 283 116.293 C 279.975 119.181, 275.475 123.263, 273 125.363 C 269.109 128.663, 268.952 128.931, 271.838 127.340 C 275.892 125.106, 286.647 115.528, 288.054 112.899 C 289.506 110.186, 289.130 110.439, 283 116.293 M 282.250 136.685 C 264.831 154.290, 259.648 160.943, 271.366 150.655 C 274.868 147.581, 278.055 145.388, 278.450 145.783 C 278.844 146.177, 279.028 146.050, 278.858 145.500 C 278.688 144.950, 281.947 141.077, 286.100 136.894 C 291.709 131.244, 301.861 118.020, 299.741 119.126 C 299.608 119.195, 291.738 127.096, 282.250 136.685 M 235.487 128.365 C 229.433 132.449, 219.733 141.066, 220.418 141.751 C 220.939 142.273, 237.802 129.148, 239.978 126.527 C 241.832 124.293, 241.042 124.616, 235.487 128.365 M 328.492 126.012 C 327.927 126.926, 329.356 139.143, 330.684 144.750 C 332.725 153.371, 334.594 145.345, 332.955 135 C 331.386 125.108, 330.346 123.013, 328.492 126.012 M 257.559 136.532 C 256.491 137.339, 256.099 138, 256.686 138 C 257.274 138, 258.315 137.325, 259 136.500 C 260.557 134.624, 260.067 134.634, 257.559 136.532 M 371.543 148.500 C 372.316 153.796, 373.790 158.544, 374.454 157.879 C 375.013 157.320, 372.380 145.044, 371.519 144.196 C 371.131 143.813, 371.141 145.750, 371.543 148.500 M 365.158 154 C 365.158 155.375, 365.385 155.938, 365.662 155.250 C 365.940 154.563, 365.940 153.438, 365.662 152.750 C 365.385 152.063, 365.158 152.625, 365.158 154 M 235.480 159.425 C 231.641 161.309, 229.035 162.884, 229.689 162.925 C 230.343 162.966, 233.943 161.427, 237.689 159.505 C 246.475 154.996, 244.640 154.930, 235.480 159.425 M 245.762 178.707 C 247.006 178.946, 248.806 178.937, 249.762 178.687 C 250.718 178.437, 249.700 178.241, 247.500 178.252 C 245.300 178.263, 244.518 178.468, 245.762 178.707 M 307.762 178.707 C 309.006 178.946, 310.806 178.937, 311.762 178.687 C 312.718 178.437, 311.700 178.241, 309.500 178.252 C 307.300 178.263, 306.518 178.468, 307.762 178.707 M 203.750 187.577 C 202.187 189.152, 203.870 211.025, 206.066 217.678 C 206.801 219.906, 206.867 219.554, 206.376 216 C 206.034 213.525, 205.472 205.947, 205.127 199.161 C 204.782 192.374, 204.162 187.161, 203.750 187.577 M 207.320 193 C 207.320 196.575, 207.502 198.037, 207.723 196.250 C 207.945 194.463, 207.945 191.537, 207.723 189.750 C 207.502 187.963, 207.320 189.425, 207.320 193 M 188.632 204 C 189.336 208.010, 194.611 223.944, 195.542 224.876 C 196.522 225.855, 194.956 220.305, 191.345 210 C 189.515 204.775, 188.294 202.075, 188.632 204 M 227 241.500 C 228.292 242.875, 229.574 244, 229.849 244 C 230.124 244, 229.292 242.875, 228 241.500 C 226.708 240.125, 225.426 239, 225.151 239 C 224.876 239, 225.708 240.125, 227 241.500 M 236.250 278.689 C 237.213 278.941, 238.787 278.941, 239.750 278.689 C 240.713 278.438, 239.925 278.232, 238 278.232 C 236.075 278.232, 235.287 278.438, 236.250 278.689 M 312.750 278.662 C 313.438 278.940, 314.563 278.940, 315.250 278.662 C 315.938 278.385, 315.375 278.158, 314 278.158 C 312.625 278.158, 312.063 278.385, 312.750 278.662 M 323 278.383 C 323 278.594, 323.901 279.002, 325.001 279.290 C 326.102 279.578, 326.751 279.405, 326.442 278.907 C 325.904 278.036, 323 277.594, 323 278.383 M 279.264 284.718 C 280.784 284.947, 283.034 284.941, 284.264 284.704 C 285.494 284.467, 284.250 284.279, 281.500 284.286 C 278.750 284.294, 277.744 284.488, 279.264 284.718 M 244.768 334.725 C 246.565 334.947, 249.265 334.943, 250.768 334.715 C 252.271 334.486, 250.800 334.304, 247.500 334.310 C 244.200 334.315, 242.971 334.502, 244.768 334.725 M 312.768 334.725 C 314.565 334.947, 317.265 334.943, 318.768 334.715 C 320.271 334.486, 318.800 334.304, 315.500 334.310 C 312.200 334.315, 310.971 334.502, 312.768 334.725 M 197.250 335.689 C 198.213 335.941, 199.787 335.941, 200.750 335.689 C 201.713 335.438, 200.925 335.232, 199 335.232 C 197.075 335.232, 196.287 335.438, 197.250 335.689 M 205.750 335.662 C 206.438 335.940, 207.563 335.940, 208.250 335.662 C 208.938 335.385, 208.375 335.158, 207 335.158 C 205.625 335.158, 205.063 335.385, 205.750 335.662 M 354.750 335.662 C 355.438 335.940, 356.563 335.940, 357.250 335.662 C 357.938 335.385, 357.375 335.158, 356 335.158 C 354.625 335.158, 354.063 335.385, 354.750 335.662 M 362.250 335.689 C 363.212 335.941, 364.788 335.941, 365.750 335.689 C 366.712 335.438, 365.925 335.232, 364 335.232 C 362.075 335.232, 361.288 335.438, 362.250 335.689 M 149.269 336.693 C 150.242 336.947, 151.592 336.930, 152.269 336.656 C 152.946 336.382, 152.150 336.175, 150.500 336.195 C 148.850 336.215, 148.296 336.439, 149.269 336.693 M 410.750 336.706 C 411.988 336.944, 414.012 336.944, 415.250 336.706 C 416.488 336.467, 415.475 336.272, 413 336.272 C 410.525 336.272, 409.512 336.467, 410.750 336.706 M 243.269 342.693 C 244.242 342.947, 245.592 342.930, 246.269 342.656 C 246.946 342.382, 246.150 342.175, 244.500 342.195 C 242.850 342.215, 242.296 342.439, 243.269 342.693 M 317.762 342.707 C 319.006 342.946, 320.806 342.937, 321.762 342.687 C 322.718 342.437, 321.700 342.241, 319.500 342.252 C 317.300 342.263, 316.518 342.468, 317.762 342.707 M 180.250 343.689 C 181.213 343.941, 182.787 343.941, 183.750 343.689 C 184.713 343.438, 183.925 343.232, 182 343.232 C 180.075 343.232, 179.287 343.438, 180.250 343.689 M 379.250 343.689 C 380.212 343.941, 381.788 343.941, 382.750 343.689 C 383.712 343.438, 382.925 343.232, 381 343.232 C 379.075 343.232, 378.288 343.438, 379.250 343.689" stroke="none" fill="#7a4941" fill-rule="evenodd"/><path d="M 298.606 131.750 C 293.404 139.568, 291.248 142.152, 288.488 143.877 C 286.872 144.886, 289.522 145.032, 302.648 144.657 C 314.002 144.332, 319.190 144.537, 320.125 145.348 C 320.857 145.981, 318.729 143.575, 315.398 140 C 312.066 136.425, 308.079 131.588, 306.537 129.250 C 303.088 124.020, 303.924 123.757, 298.606 131.750 M 271.552 154.250 C 271.340 154.938, 270.905 158.051, 270.584 161.169 C 269.165 174.975, 263.886 179.858, 249.377 180.790 C 237.003 181.584, 219.699 174.532, 222.581 169.869 C 224.895 166.124, 217.954 172.975, 212.817 179.505 L 210.708 182.186 212.921 197.343 C 216.634 222.777, 218.981 228.219, 231.046 239.373 C 237.170 245.035, 251.542 254.976, 257 257.326 C 258.925 258.155, 262.229 259.587, 264.343 260.507 C 271.713 263.719, 286.567 262.324, 293.132 257.804 C 296.084 255.771, 299.850 253.517, 301.500 252.796 C 306.356 250.671, 323.932 238.664, 331.500 232.301 L 338.500 226.414 339.153 219.457 C 341.327 196.292, 341.332 181.489, 339.166 174.787 C 338.003 171.187, 337.071 166.725, 337.095 164.871 C 337.119 163.017, 336.704 160.150, 336.173 158.500 C 335.304 155.799, 335.206 156.048, 335.190 161 C 335.147 174.493, 327.880 180.935, 312.654 180.978 C 294.417 181.029, 283.999 172.038, 284 156.250 L 284 153 277.969 153 C 274.016 153, 271.805 153.431, 271.552 154.250 M 274.233 205.834 C 273.478 207.803, 275.956 209.063, 279.992 208.761 C 282.300 208.588, 283.589 207.943, 283.795 206.855 C 284.209 204.665, 275.057 203.688, 274.233 205.834 M 297 224.059 C 290.741 229.103, 282.643 232.285, 274.511 232.898 C 264.840 233.627, 262.403 236.338, 270.348 237.529 C 278.876 238.808, 289.649 235.344, 296.200 229.216 C 302.348 223.465, 303.007 219.218, 297 224.059 M 288.025 267.093 C 280.161 272.255, 275.899 272.585, 268.241 268.625 C 264.094 266.480, 264.356 266.269, 263.731 272.250 C 263.429 275.137, 263.029 278.112, 262.841 278.859 C 261.851 282.803, 284.889 285.131, 295.214 282.130 C 299.873 280.776, 299.912 280.730, 298.581 278.130 C 297.841 276.684, 296.425 272.913, 295.435 269.750 C 293.360 263.121, 293.823 263.287, 288.025 267.093 M 183.750 303.662 C 184.438 303.940, 185.563 303.940, 186.250 303.662 C 186.938 303.385, 186.375 303.158, 185 303.158 C 183.625 303.158, 183.063 303.385, 183.750 303.662 M 197.269 304.693 C 198.242 304.947, 199.592 304.930, 200.269 304.656 C 200.946 304.382, 200.150 304.175, 198.500 304.195 C 196.850 304.215, 196.296 304.439, 197.269 304.693 M 280.269 306.693 C 281.242 306.947, 282.592 306.930, 283.269 306.656 C 283.946 306.382, 283.150 306.175, 281.500 306.195 C 279.850 306.215, 279.296 306.439, 280.269 306.693 M 294.269 306.693 C 295.242 306.947, 296.592 306.930, 297.269 306.656 C 297.946 306.382, 297.150 306.175, 295.500 306.195 C 293.850 306.215, 293.296 306.439, 294.269 306.693 M 322.250 306.689 C 323.212 306.941, 324.788 306.941, 325.750 306.689 C 326.712 306.438, 325.925 306.232, 324 306.232 C 322.075 306.232, 321.288 306.438, 322.250 306.689 M 240.264 325.718 C 241.784 325.947, 244.034 325.941, 245.264 325.704 C 246.494 325.467, 245.250 325.279, 242.500 325.286 C 239.750 325.294, 238.744 325.488, 240.264 325.718 M 318.264 325.718 C 319.784 325.947, 322.034 325.941, 323.264 325.704 C 324.494 325.467, 323.250 325.279, 320.500 325.286 C 317.750 325.294, 316.744 325.488, 318.264 325.718 M 190.250 326.689 C 191.213 326.941, 192.787 326.941, 193.750 326.689 C 194.713 326.438, 193.925 326.232, 192 326.232 C 190.075 326.232, 189.287 326.438, 190.250 326.689 M 203.776 326.733 C 206.128 326.945, 209.728 326.942, 211.776 326.727 C 213.824 326.512, 211.900 326.339, 207.500 326.343 C 203.100 326.346, 201.424 326.522, 203.776 326.733 M 219.269 326.693 C 220.242 326.947, 221.592 326.930, 222.269 326.656 C 222.946 326.382, 222.150 326.175, 220.500 326.195 C 218.850 326.215, 218.296 326.439, 219.269 326.693 M 273.762 326.707 C 275.006 326.946, 276.806 326.937, 277.762 326.687 C 278.718 326.437, 277.700 326.241, 275.500 326.252 C 273.300 326.263, 272.518 326.468, 273.762 326.707 M 287.750 326.662 C 288.438 326.940, 289.563 326.940, 290.250 326.662 C 290.938 326.385, 290.375 326.158, 289 326.158 C 287.625 326.158, 287.063 326.385, 287.750 326.662 M 341.269 326.693 C 342.242 326.947, 343.592 326.930, 344.269 326.656 C 344.946 326.382, 344.150 326.175, 342.500 326.195 C 340.850 326.215, 340.296 326.439, 341.269 326.693 M 350.776 326.733 C 353.128 326.945, 356.728 326.942, 358.776 326.727 C 360.824 326.512, 358.900 326.339, 354.500 326.343 C 350.100 326.346, 348.424 326.522, 350.776 326.733 M 369.250 326.689 C 370.212 326.941, 371.788 326.941, 372.750 326.689 C 373.712 326.438, 372.925 326.232, 371 326.232 C 369.075 326.232, 368.288 326.438, 369.250 326.689 M 400.750 326.662 C 401.438 326.940, 402.563 326.940, 403.250 326.662 C 403.938 326.385, 403.375 326.158, 402 326.158 C 400.625 326.158, 400.063 326.385, 400.750 326.662" stroke="none" fill="#e6a065" fill-rule="evenodd"/><path d="M 259.383 153.750 C 259.023 155.262, 258.117 157.625, 257.371 159 C 255.154 163.081, 252 171.058, 252 172.583 C 252 175.499, 255.147 173.882, 256.541 170.250 C 257.333 168.188, 259.110 164.362, 260.490 161.749 C 263.328 156.378, 263.843 151, 261.519 151 C 260.705 151, 259.743 152.238, 259.383 153.750 M 290.776 155.250 C 291.337 162.486, 291.537 162.642, 293.800 157.623 C 296.606 151.402, 296.571 151, 293.224 151 C 290.572 151, 290.462 151.191, 290.776 155.250 M 299.985 152.750 C 299.977 153.713, 298.481 157.550, 296.661 161.278 C 293.666 167.413, 293.489 168.253, 294.800 170.125 C 296.161 172.068, 296.483 171.571, 300.124 161.922 C 304.680 149.849, 304.482 151, 302 151 C 300.767 151, 299.994 151.672, 299.985 152.750 M 307.532 152.052 C 307.890 152.631, 306.797 156.569, 305.103 160.802 C 301.382 170.103, 300.894 173.291, 303.121 173.757 C 304.359 174.017, 304.630 173.515, 304.269 171.629 C 303.975 170.089, 305.305 165.745, 307.804 160.080 L 311.811 151 309.347 151 C 307.877 151, 307.144 151.425, 307.532 152.052 M 313.015 158.750 C 307.541 171.753, 306.871 174, 308.467 174 C 309.225 174, 310.389 172.351, 311.054 170.336 C 311.719 168.320, 313.779 163.345, 315.632 159.280 C 319.491 150.812, 319.445 151, 317.639 151 C 316.888 151, 314.814 154.476, 313.015 158.750 M 323 152.051 C 323 152.629, 321.171 157.400, 318.935 162.653 C 315.323 171.139, 314.470 175.145, 316.854 172.433 C 319.174 169.793, 325.440 151, 324 151 C 323.450 151, 323 151.473, 323 152.051 M 251.654 154.830 C 249.928 156.737, 245.744 166.497, 244.615 171.250 C 243.427 176.251, 246.591 174.340, 248.754 168.750 C 249.872 165.863, 251.728 161.137, 252.878 158.250 C 255.026 152.861, 254.576 151.601, 251.654 154.830 M 325.356 163.006 C 321.971 172.691, 322.580 174.511, 327.545 169.545 C 329.652 167.439, 330 166.162, 330 160.545 C 330 151.817, 329.101 152.293, 325.356 163.006 M 242.604 159.831 C 241.428 161.734, 238.223 173, 238.858 173 C 239.687 173, 244.273 159.939, 243.659 159.326 C 243.407 159.074, 242.932 159.301, 242.604 159.831 M 263.745 162 C 261.662 166.931, 260.713 171.295, 261.881 170.573 C 263.314 169.688, 266.291 161.349, 265.719 159.823 C 265.430 159.051, 264.608 159.956, 263.745 162 M 234.684 165.163 C 232.404 168.773, 231.540 172.320, 233.064 171.812 C 234.350 171.383, 237.370 164.037, 236.584 163.251 C 236.351 163.017, 235.496 163.878, 234.684 165.163 M 227.638 167.500 C 227.955 168.325, 228.343 169, 228.500 169 C 228.657 169, 229.045 168.325, 229.362 167.500 C 229.709 166.595, 229.367 166, 228.500 166 C 227.633 166, 227.291 166.595, 227.638 167.500 M 153.924 316.750 L 151.500 319.500 154.250 317.076 C 156.820 314.810, 157.459 314, 156.674 314 C 156.495 314, 155.258 315.238, 153.924 316.750 M 229.269 342.693 C 230.242 342.947, 231.592 342.930, 232.269 342.656 C 232.946 342.382, 232.150 342.175, 230.500 342.195 C 228.850 342.215, 228.296 342.439, 229.269 342.693 M 323.750 342.662 C 324.438 342.940, 325.563 342.940, 326.250 342.662 C 326.938 342.385, 326.375 342.158, 325 342.158 C 323.625 342.158, 323.063 342.385, 323.750 342.662 M 330.750 342.662 C 331.438 342.940, 332.563 342.940, 333.250 342.662 C 333.938 342.385, 333.375 342.158, 332 342.158 C 330.625 342.158, 330.063 342.385, 330.750 342.662 M 166.750 343.732 C 169.088 343.943, 172.912 343.943, 175.250 343.732 C 177.588 343.522, 175.675 343.349, 171 343.349 C 166.325 343.349, 164.412 343.522, 166.750 343.732 M 387.776 343.733 C 390.128 343.945, 393.728 343.942, 395.776 343.727 C 397.824 343.512, 395.900 343.339, 391.500 343.343 C 387.100 343.346, 385.424 343.522, 387.776 343.733 M 477.195 350.500 C 477.215 352.150, 477.439 352.704, 477.693 351.731 C 477.947 350.758, 477.930 349.408, 477.656 348.731 C 477.382 348.054, 477.175 348.850, 477.195 350.500" stroke="none" fill="#444444" fill-rule="evenodd"/><path d="M 259.500 26.067 C 257.300 26.462, 255.171 26.587, 254.769 26.345 C 250.848 23.987, 217.768 37.447, 208.340 45.237 C 190.438 60.027, 183.928 70.839, 174.159 102.003 C 152.480 171.162, 166.006 247.910, 204.492 274.120 C 209.116 277.269, 209.061 277.370, 201.325 279.910 C 171.323 289.759, 139.131 316.341, 135.517 334.250 L 134.962 337 119.731 337.051 C 111.354 337.080, 101.350 337.540, 97.500 338.073 C 93.650 338.607, 89.600 339.119, 88.500 339.211 C 84.691 339.528, 83.857 349.429, 86.032 368.500 C 88.881 393.474, 90.275 403.592, 90.992 404.500 C 92.008 405.787, 94.960 425.414, 94.829 430 C 94.610 437.587, 104.224 481.033, 115.241 522.250 C 116.149 525.647, 125 528.509, 125 525.406 C 125 525.080, 122.948 517.853, 120.439 509.346 C 110.969 477.234, 103.426 441.424, 96.038 393.500 C 93.239 375.350, 90.286 356.963, 89.475 352.640 C 88.664 348.316, 88 344.491, 88.001 344.140 C 88.001 343.788, 101.164 343.483, 117.251 343.463 C 133.338 343.442, 170.575 343.065, 200 342.624 C 266.938 341.622, 295.918 341.630, 362 342.672 C 390.875 343.128, 428.112 343.500, 444.749 343.500 L 474.997 343.500 474.511 346.500 C 474.243 348.150, 473.125 354.900, 472.026 361.500 C 470.927 368.100, 468.410 384.075, 466.433 397 C 459.938 439.454, 452.687 473.889, 443.399 506.390 C 440.429 516.780, 438 525.443, 438 525.640 C 438 525.838, 439.913 525.999, 442.250 525.999 L 446.500 525.998 449.783 514.249 C 463.624 464.713, 476.444 391.303, 477.465 355.739 L 477.859 341.979 473.680 339.853 C 469.890 337.926, 467.619 337.703, 449.320 337.466 C 427.262 337.181, 427 337.130, 427 333.132 C 427 319.385, 390.912 289.625, 363 280.353 C 359.975 279.348, 357.352 278.447, 357.170 278.350 C 356.740 278.120, 360.045 272.798, 361.430 271.489 C 368.390 264.910, 373.998 251.310, 383.900 217 C 401.376 156.449, 388.066 98.256, 347.830 59.308 C 342.269 53.925, 333 50.607, 333 54 C 333 54.550, 333.970 55, 335.156 55 C 338.481 55, 343.094 59.079, 351.232 69.217 C 389.037 116.311, 393.956 172.443, 366.681 245.500 C 364.135 252.320, 354.404 272.070, 353.858 271.525 C 353.574 271.241, 352.286 272.131, 350.996 273.504 C 347.195 277.550, 344 276.890, 344 272.059 C 344 266.668, 342.751 266.327, 338.169 270.466 C 333.433 274.745, 331.706 275.021, 332.627 271.351 C 333.069 269.588, 332.935 268.922, 332.225 269.361 C 330.924 270.165, 337.444 253.974, 338.769 253.112 C 345.557 248.691, 349.372 167.400, 343.456 153.241 C 342.532 151.028, 342.167 146.942, 342.361 140.962 C 342.521 136.033, 342.281 132, 341.826 132 C 341.372 132, 341 139.411, 341 148.469 C 341 163.732, 340.872 164.888, 339.253 164.267 C 337.605 163.635, 337.601 163.742, 339.180 166.152 C 340.101 167.558, 341.152 170.461, 341.515 172.604 C 342.540 178.659, 343.069 180.075, 344.072 179.456 C 345.777 178.402, 345.183 212.086, 343.344 220.722 C 340.984 231.807, 332.849 238.659, 306.646 251.631 L 294.793 257.500 295.296 263.191 C 295.573 266.322, 296.970 271.439, 298.400 274.562 C 301.835 282.065, 302.082 281.623, 293.354 283.565 C 284.625 285.507, 273.702 285.116, 265.369 282.564 L 260.238 280.993 261.575 277.247 C 263.325 272.345, 263.443 261.058, 261.750 260.597 C 234.750 253.241, 211.485 232.176, 208.501 212.383 C 205.147 190.125, 206.283 182.134, 214.005 173.684 C 219.658 167.499, 222.845 166.455, 224.513 170.241 C 228.513 179.323, 257.463 180.932, 264.880 172.484 C 267.595 169.392, 270 162.064, 270 156.885 C 270 155.776, 270.523 153.886, 271.161 152.684 C 271.983 151.138, 271.148 151.557, 268.303 154.119 C 266.092 156.110, 263.882 157.910, 263.392 158.119 C 262.041 158.696, 258.840 164.823, 257.492 169.416 C 256.459 172.931, 251 176.453, 251 173.603 C 251 172.940, 254.515 163.996, 256.905 158.581 C 257.895 156.336, 258.982 153.713, 259.321 152.750 C 260.217 150.205, 262.980 150.570, 263.103 153.250 C 263.172 154.748, 263.544 154.228, 264.216 151.696 C 265.728 145.994, 265.334 146.073, 247.855 154.981 C 225.951 166.145, 224.086 166.601, 227.526 159.950 C 228.365 158.328, 228.887 157, 228.686 157 C 228.107 157, 214.244 170.712, 205.749 179.687 C 198.090 187.778, 194.730 193.562, 201.500 187 L 205 183.608 205 191.253 C 205 208.840, 210.958 238.817, 217.053 251.899 C 220.512 259.322, 221.822 259.672, 219.078 252.440 C 217.011 246.992, 211.943 229, 212.475 229 C 212.660 229, 215.071 232.037, 217.833 235.750 C 227.753 249.083, 244.060 260.658, 256.896 263.477 C 260.116 264.184, 260.768 266.191, 259.129 270.356 C 258.522 271.902, 258.090 271.525, 256.548 268.106 C 253.945 262.334, 252 262.717, 252 269 C 252 276.497, 248.837 276.156, 246.990 268.459 C 245.651 262.876, 243.639 259.027, 242.603 260.064 C 242.295 260.372, 242.773 263.193, 243.667 266.333 C 246.785 277.295, 242.631 275.227, 237.677 263.352 C 233.669 253.745, 232.365 251.301, 231.638 252.029 C 231.378 252.288, 233.112 257.113, 235.489 262.750 C 241.453 276.890, 239.845 275.539, 231.391 259.308 C 226.511 249.938, 223.695 245.572, 222.409 245.384 C 221.379 245.233, 220.399 244.698, 220.232 244.196 C 219.440 241.820, 217.064 239.497, 217.032 241.067 C 216.992 243.046, 225.635 257.603, 231.528 265.481 C 237.041 272.853, 237.045 272.740, 231.250 273.501 C 228.637 273.845, 224.507 274.510, 222.070 274.980 C 209.036 277.494, 184.157 245.529, 177.499 217.713 C 161.276 149.943, 178.926 74.133, 217 48.045 C 242.484 30.584, 286.204 26.779, 315.147 39.505 C 325.933 44.247, 326.932 43.588, 319.979 36.318 C 311.251 27.192, 281.416 22.136, 259.500 26.067 M 264 50.800 C 251.322 57.024, 228.365 75.875, 223.693 83.898 C 220.915 88.669, 222.399 87.738, 233.144 77.967 C 245.193 67.011, 257.161 58.026, 266.216 53.142 C 276.369 47.664, 274.472 45.659, 264 50.800 M 357.868 100.750 C 363.863 112.530, 372.918 142.123, 375.079 157 C 376.565 167.232, 377.979 169.849, 376.848 160.274 C 374.436 139.854, 360.931 97, 356.907 97 C 356.386 97, 356.818 98.688, 357.868 100.750 M 285 109.931 C 275.133 120.055, 263.335 129.576, 247.742 140 C 240.659 144.735, 238.321 147.781, 244.750 143.898 C 262.188 133.367, 275.803 122.934, 286.599 111.830 C 294.196 104.015, 298.083 98.899, 296.285 99.078 C 295.853 99.122, 290.775 104.005, 285 109.931 M 299.503 120.996 C 295.878 126.493, 289.804 134.143, 286.004 137.996 C 282.205 141.848, 279.449 145, 279.879 145 C 281.427 145, 294.789 130.379, 298.387 124.750 C 302.968 117.582, 302.602 117.524, 308.797 126.396 C 311.637 130.464, 316.215 136.426, 318.971 139.646 C 321.727 142.866, 323.986 145.808, 323.991 146.185 C 323.996 146.561, 313.315 146.912, 300.256 146.964 C 280.789 147.042, 276.247 147.324, 275.042 148.530 C 273.748 149.823, 274.418 150, 280.618 150 L 287.665 150 287.229 155.258 C 285.858 171.783, 294.457 178.979, 314.058 177.709 C 328.815 176.753, 333.914 172.603, 334.428 161.130 C 334.816 152.456, 334.929 151.838, 336 152.500 C 336.550 152.840, 337 152.742, 337 152.283 C 337 150.010, 334.826 133.853, 333.890 129.171 C 332.020 119.813, 331.807 124.396, 333.577 135.923 C 334.516 142.042, 335.049 147.284, 334.760 147.573 C 331.917 150.416, 322.064 141.536, 311.162 126.304 L 304.183 116.552 306.160 113.776 C 307.247 112.249, 307.677 111, 307.115 111 C 306.553 111, 303.128 115.498, 299.503 120.996 M 243.210 120.750 C 230.021 127.569, 213.841 142.328, 214.047 147.352 C 214.073 147.984, 215.288 146.925, 216.747 145 C 221.850 138.270, 231.344 130.136, 240.082 125.007 C 253.114 117.357, 255.162 114.571, 243.210 120.750 M 363.116 150.209 C 362.953 154.026, 365.095 168.337, 365.975 169.303 C 366.377 169.744, 366.102 165.694, 365.363 160.303 C 363.789 148.809, 363.275 146.498, 363.116 150.209 M 290.277 151.721 C 289.981 152.492, 290.170 155.457, 290.696 158.311 C 291.753 164.046, 291.321 164.364, 295.381 154.859 L 296.936 151.218 293.875 150.768 C 291.844 150.470, 290.634 150.790, 290.277 151.721 M 299.063 154.750 C 298.327 156.813, 296.664 160.717, 295.368 163.427 C 293.167 168.025, 293.120 168.475, 294.660 170.177 C 296.800 172.541, 298 172.491, 298 170.037 C 298 168.211, 299.521 163.930, 303.430 154.750 C 305.011 151.037, 305.004 151, 302.714 151 C 300.947 151, 300.086 151.884, 299.063 154.750 M 306.634 152.487 C 306.948 153.306, 306.748 155.218, 306.191 156.737 C 305.633 158.257, 304.062 162.512, 302.698 166.193 C 299.839 173.912, 299.874 174, 305.760 174 C 309.320 174, 310.288 173.615, 310.701 172.035 C 310.984 170.954, 313.147 165.779, 315.509 160.535 C 319.603 151.446, 319.703 151.001, 317.652 151.014 C 315.846 151.025, 314.829 152.751, 311.332 161.736 C 309.039 167.626, 306.677 172.608, 306.082 172.806 C 303.561 173.646, 304.082 169.618, 307.503 161.828 C 309.515 157.248, 311.398 152.938, 311.687 152.250 C 312.043 151.407, 311.213 151, 309.138 151 C 306.827 151, 306.205 151.370, 306.634 152.487 M 322 152.824 C 322 153.827, 320.425 158.282, 318.500 162.724 C 314.900 171.031, 314.164 174.445, 316.114 173.795 C 318.879 172.874, 325.967 151, 323.500 151 C 322.675 151, 322 151.821, 322 152.824 M 328.632 152.107 C 328.404 152.873, 326.771 157.690, 325.004 162.812 C 321.514 172.926, 321.527 173.628, 325.175 171.966 C 329.181 170.141, 330.308 167.231, 330.154 159.117 C 330.016 151.848, 329.465 149.311, 328.632 152.107 M 251.818 154.042 C 247.836 156.365, 242.695 174, 246 174 C 247.100 174, 248 173.412, 248 172.694 C 248 171.976, 249.575 167.483, 251.500 162.709 C 255.821 151.994, 255.831 151.701, 251.818 154.042 M 337.015 157.583 C 337.024 159.188, 337.490 161.175, 338.052 162 C 338.785 163.075, 338.884 162.366, 338.404 159.500 C 337.574 154.539, 336.995 153.741, 337.015 157.583 M 239.990 166.031 C 238.746 169.898, 237.985 173.318, 238.298 173.631 C 239.294 174.627, 241 172.952, 241 170.978 C 241 169.931, 241.893 166.807, 242.985 164.037 C 244.539 160.097, 244.675 159, 243.611 159 C 242.807 159, 241.325 161.878, 239.990 166.031 M 262.594 163.678 C 260.324 170.340, 260.463 171.982, 263.075 169.369 C 265.309 167.135, 266.996 159, 265.226 159 C 264.655 159, 263.471 161.105, 262.594 163.678 M 235.365 164.250 C 232.121 167.930, 230.833 171.722, 232.598 172.399 C 233.411 172.711, 234.276 172.411, 234.521 171.733 C 236.546 166.129, 237.865 162, 237.630 162 C 237.475 162, 236.456 163.012, 235.365 164.250 M 343.328 169.500 C 343.333 173.350, 343.513 174.802, 343.730 172.728 C 343.946 170.653, 343.943 167.503, 343.722 165.728 C 343.501 163.952, 343.324 165.650, 343.328 169.500 M 227.192 167.075 C 227.389 167.666, 227.978 168.150, 228.500 168.150 C 229.022 168.150, 229.611 167.666, 229.808 167.075 C 230.005 166.484, 229.417 166, 228.500 166 C 227.583 166, 226.995 166.484, 227.192 167.075 M 182 182.034 C 182 189.702, 190.933 221.652, 196.919 235.392 C 201.017 244.798, 199.911 239.264, 195.004 225.806 C 189.343 210.284, 185.197 195.121, 184.315 186.719 C 183.730 181.139, 182 177.639, 182 182.034 M 294.026 227.123 C 288.165 231.354, 282.101 233.462, 272.500 234.608 C 266.978 235.267, 266.739 235.394, 269.500 236.201 C 275.237 237.880, 286.766 235.251, 293.210 230.795 C 295.406 229.276, 300.980 222.773, 299.818 223.086 C 299.643 223.133, 297.037 224.949, 294.026 227.123 M 338.459 236.066 C 338.097 236.652, 335.954 238.469, 333.698 240.104 C 327.947 244.270, 317.919 273.740, 322.557 272.847 C 323.907 272.587, 325.081 270.058, 327.128 262.999 C 332.307 245.137, 333.536 241.655, 334.811 241.230 C 335.743 240.919, 335.907 241.572, 335.418 243.652 C 334.788 246.333, 327.936 267.452, 326.464 271.250 C 325.935 272.615, 326.304 272.997, 328.143 272.985 C 329.931 272.973, 330.156 272.752, 329.076 272.068 C 327.887 271.316, 328.127 270.120, 330.523 264.833 C 332.970 259.436, 340.243 235, 339.403 235 C 339.246 235, 338.822 235.480, 338.459 236.066 M 324.254 246.240 C 321.293 248.009, 320.532 251.341, 322.526 253.802 C 322.661 253.968, 323.954 251.987, 325.400 249.400 C 328.508 243.839, 328.465 243.722, 324.254 246.240 M 316.873 250.684 C 314.593 252.099, 314.170 253.183, 313.669 258.907 C 313.351 262.533, 312.781 267.452, 312.402 269.838 C 311.339 276.534, 315.829 275.662, 317.564 268.836 C 318.735 264.227, 320.484 248.975, 319.835 249.027 C 319.651 249.041, 318.318 249.787, 316.873 250.684 M 225 253 C 225.589 254.100, 226.295 255, 226.570 255 C 226.845 255, 226.589 254.100, 226 253 C 225.411 251.900, 224.705 251, 224.430 251 C 224.155 251, 224.411 251.900, 225 253 M 304.178 257.119 C 299.233 259.351, 297.968 260.356, 298.369 261.736 C 298.650 262.706, 299.436 265.525, 300.115 268 L 301.349 272.500 302.230 267.500 C 303.761 258.813, 304.012 258, 305.167 258 C 305.972 258, 306.104 260.717, 305.627 267.500 C 304.564 282.631, 306.626 281.188, 309.570 264.742 C 311.657 253.086, 312.010 253.585, 304.178 257.119 M 255.032 274.191 C 255.014 275.121, 255.480 276.179, 256.067 276.541 C 257.829 277.630, 258.076 276.482, 256.521 274.427 C 255.241 272.735, 255.060 272.706, 255.032 274.191 M 227.500 279.248 C 221.309 280.501, 221.497 280.303, 223.535 283.413 C 225.628 286.608, 223.926 286.927, 219.690 284.134 C 211.231 278.556, 173.712 297.162, 154.495 316.464 C 148.737 322.247, 141 333.682, 141 336.410 C 141 337.040, 201.153 336.384, 227.500 335.466 C 245.505 334.838, 317.297 334.836, 335.500 335.463 C 357.406 336.216, 422 337.127, 422 336.682 C 422 333.415, 412.209 319.447, 408.105 316.859 C 406.672 315.956, 402.882 312.664, 399.683 309.544 C 393.687 303.699, 384.278 297.162, 375.468 292.723 C 367.534 288.725, 351.994 282.886, 350.971 283.518 C 350.459 283.834, 349.230 283.658, 348.238 283.128 C 346.913 282.418, 345.783 282.665, 343.968 284.059 C 340.812 286.484, 339.189 286.554, 341.345 284.171 C 343.227 282.091, 343.635 279.965, 341.800 281.800 C 340.200 283.400, 339 283.318, 339 281.607 C 339 279.170, 335.923 278.919, 332.852 281.106 C 329.649 283.386, 327.911 283.017, 330 280.500 C 330.707 279.648, 331.027 278.694, 330.712 278.378 C 330.397 278.063, 329.549 278.749, 328.829 279.903 C 327.170 282.559, 326.027 282.612, 326.710 280 C 327.595 276.616, 312.268 277.021, 309.031 280.468 C 299.720 290.378, 265.268 291.268, 255.841 281.841 C 254.788 280.788, 253.525 280.176, 253.033 280.480 C 252.541 280.784, 251.837 280.545, 251.468 279.948 C 251.099 279.352, 250.168 279.105, 249.399 279.400 C 248.629 279.696, 248 279.501, 248 278.969 C 248 277.725, 234.088 277.915, 227.500 279.248" stroke="none" fill="#000000" fill-rule="evenodd"/></svg>