<?xml version="1.0" ?><svg height="32" id="svg4475" version="1.1" width="32" xmlns="http://www.w3.org/2000/svg" xmlns:cc="http://creativecommons.org/ns#" xmlns:dc="http://purl.org/dc/elements/1.1/" xmlns:inkscape="http://www.inkscape.org/namespaces/inkscape" xmlns:rdf="http://www.w3.org/1999/02/22-rdf-syntax-ns#" xmlns:sodipodi="http://sodipodi.sourceforge.net/DTD/sodipodi-0.dtd" xmlns:svg="http://www.w3.org/2000/svg"><defs id="defs4477"/><g id="layer1" transform="translate(0,-1020.3622)"><g id="g10414" transform="translate(309.5948,-461.25192)"><g id="g15415" transform="translate(66.405195,515.25192)"><g id="g15417" transform="translate(-150,-49.999983)"><g id="g14600" transform="translate(-49.999995,-130.00002)"><path d="M 16.03125 0.03125 C 7.19611 0.03125 0 7.1618 0 16 C 0 24.8385 7.19612 31.9375 16.03125 31.9375 C 24.79605 31.9375 32 24.8385 32 16 C 32 7.1618 24.79607 0.03125 16.03125 0.03125 z M 16.03125 1.03125 C 24.25471 1.03125 31 7.7042 31 16 C 31 24.2961 24.25473 30.9375 16.03125 30.9375 C 7.73286 30.9375 1 24.2961 1 16 C 1 7.7042 7.73287 1.03125 16.03125 1.03125 z M 12.625 2.9375 C 11.55366 2.9375 10.6875 3.8037 10.6875 4.875 C 10.6875 5.9465 11.55366 6.84375 12.625 6.84375 C 13.69631 6.84375 14.5625 5.9465 14.5625 4.875 C 14.5625 3.8037 13.69631 2.9375 12.625 2.9375 z M 22.0625 2.9375 A 0.50005 0.50005 0 0 0 21.90625 3.03125 A 0.50005 0.50005 0 0 0 21.75 3.15625 C 21.712216 3.1851133 21.657765 3.1858885 21.625 3.21875 C 21.46527 3.37885 21.34375 3.599 21.34375 3.875 C 21.34375 4.2406076 21.527742 4.5756563 21.8125 4.75 A 0.50005 0.50005 0 0 0 21.875 4.8125 C 21.882501 4.8161605 21.898626 4.8090431 21.90625 4.8125 A 0.50005 0.50005 0 0 0 22.21875 4.875 C 22.240443 4.8764846 22.259018 4.875 22.28125 4.875 C 22.315857 4.875 22.341139 4.8474357 22.375 4.84375 C 22.503111 4.8298054 22.60825 4.8098545 22.71875 4.75 C 22.827156 4.6912799 22.918992 4.6238274 23 4.53125 C 23.046239 4.4829226 23.089422 4.4315395 23.125 4.375 C 23.144073 4.3419002 23.172254 4.3164177 23.1875 4.28125 C 23.24509 4.160188 23.28125 4.0172377 23.28125 3.875 C 23.28125 3.7617441 23.254521 3.6600021 23.21875 3.5625 C 23.177651 3.4644734 23.104754 3.3866313 23.03125 3.3125 C 22.960017 3.229564 22.877849 3.1800529 22.78125 3.125 C 22.681635 3.0682283 22.586222 3.0217935 22.46875 3 C 22.455635 2.9946154 22.449025 2.9781515 22.4375 2.96875 C 22.419061 2.9537077 22.396108 2.9442692 22.375 2.9375 L 22.375 2.96875 C 22.341411 2.9656617 22.315564 2.9375 22.28125 2.9375 L 22.21875 2.9375 A 0.50005 0.50005 0 0 0 22.0625 2.9375 z M 12.625 3.9375 C 13.15085 3.9375 13.5625 4.3491 13.5625 4.875 C 13.5625 5.4011 13.15085 5.84375 12.625 5.84375 C 12.0991 5.84375 11.6875 5.4011 11.6875 4.875 C 11.6875 4.3491 12.0991 3.9375 12.625 3.9375 z M 5.375 8.21875 C 4.83621 8.21875 4.34375 8.7094 4.34375 9.25 C 4.34375 9.8019 4.83263 10.15625 5.375 10.15625 C 5.91735 10.15625 6.375 9.802 6.375 9.25 C 6.375 8.7095 5.91346 8.21875 5.375 8.21875 z M 25.6875 8.75 C 25.39709 8.75 25.1875 8.9584 25.1875 9.25 C 25.1875 9.4661 25.39699 9.6875 25.6875 9.6875 C 25.97788 9.6875 26.1875 9.4661 26.1875 9.25 C 26.1875 8.9581 25.97802 8.75 25.6875 8.75 z M 22.78125 9.6875 C 21.98733 9.6875 21.34375 10.331 21.34375 11.125 C 21.34375 11.9558 21.98733 12.625 22.78125 12.625 C 23.57517 12.625 24.21875 11.9558 24.21875 11.125 C 24.21875 10.331 23.57517 9.6875 22.78125 9.6875 z M 11.1875 10.625 C 10.39353 10.625 9.71875 11.2943 9.71875 12.125 C 9.71875 12.919 10.39359 13.59375 11.1875 13.59375 C 11.98141 13.59375 12.625 12.919 12.625 12.125 C 12.625 11.2943 11.98148 10.625 11.1875 10.625 z M 22.78125 10.6875 C 23.00375 10.6875 23.21875 10.9022 23.21875 11.125 C 23.21875 11.4558 23.00375 11.625 22.78125 11.625 C 22.55875 11.625 22.34375 11.4558 22.34375 11.125 C 22.34375 10.9022 22.55875 10.6875 22.78125 10.6875 z M 11.1875 11.625 C 11.40992 11.625 11.625 11.7943 11.625 12.125 C 11.625 12.3476 11.40999 12.59375 11.1875 12.59375 C 10.96505 12.59375 10.71875 12.3476 10.71875 12.125 C 10.71875 11.7943 10.96511 11.625 11.1875 11.625 z M 3.40625 12.59375 C 2.61227 12.59375 1.96875 13.23745 1.96875 14.03125 C 1.96875 14.86225 2.61233 15.53125 3.40625 15.53125 C 4.23698 15.53125 4.90625 14.86225 4.90625 14.03125 C 4.90625 13.23745 4.2371 12.59375 3.40625 12.59375 z M 16.03125 13.53125 C 14.67555 13.53125 13.5625 14.6443 13.5625 16 C 13.5625 17.3557 14.67555 18.4375 16.03125 18.4375 C 17.33338 18.4375 18.4375 17.3557 18.4375 16 C 18.4375 14.6443 17.33338 13.53125 16.03125 13.53125 z M 28.59375 13.53125 C 28.0545 13.53125 27.59375 13.99075 27.59375 14.53125 C 27.59375 15.07185 28.05528 15.53125 28.59375 15.53125 C 29.133 15.53125 29.59375 15.07185 29.59375 14.53125 C 29.59375 13.99075 29.13221 13.53125 28.59375 13.53125 z M 3.40625 13.59375 C 3.73696 13.59375 3.90625 13.80915 3.90625 14.03125 C 3.90625 14.36255 3.73708 14.53125 3.40625 14.53125 C 3.18375 14.53125 2.96875 14.36235 2.96875 14.03125 C 2.96875 13.80915 3.18381 13.59375 3.40625 13.59375 z M 16.03125 14.53125 C 16.76186 14.53125 17.4375 15.1777 17.4375 16 C 17.4375 16.8223 16.76186 17.4375 16.03125 17.4375 C 15.20895 17.4375 14.5625 16.8223 14.5625 16 C 14.5625 15.1777 15.20895 14.53125 16.03125 14.53125 z M 26.1875 15.5 C 25.11618 15.5 24.25 16.366 24.25 17.4375 C 24.25 18.5088 25.11618 19.40625 26.1875 19.40625 C 27.25883 19.40625 28.15625 18.5088 28.15625 17.4375 C 28.15625 16.366 27.25883 15.5 26.1875 15.5 z M 26.1875 16.5 C 26.71339 16.5 27.15625 16.9114 27.15625 17.4375 C 27.15625 17.9634 26.71339 18.40625 26.1875 18.40625 C 25.66164 18.40625 25.25 17.9634 25.25 17.4375 C 25.25 16.9114 25.66164 16.5 26.1875 16.5 z M 5.375 21.28125 C 4.58108 21.28125 3.90625 21.9562 3.90625 22.75 C 3.90625 23.581 4.58108 24.25 5.375 24.25 C 6.16891 24.25 6.8125 23.581 6.8125 22.75 C 6.8125 21.9562 6.16891 21.28125 5.375 21.28125 z M 23.71875 22.25 C 22.92477 22.25 22.28125 22.9191 22.28125 23.75 C 22.28125 24.5439 22.92483 25.1875 23.71875 25.1875 C 24.54954 25.1875 25.25 24.5439 25.25 23.75 C 25.25 22.9191 24.5496 22.25 23.71875 22.25 z M 5.375 22.28125 C 5.59749 22.28125 5.8125 22.528 5.8125 22.75 C 5.8125 23.0812 5.59749 23.25 5.375 23.25 C 5.1525 23.25 4.90625 23.0812 4.90625 22.75 C 4.90625 22.528 5.1525 22.28125 5.375 22.28125 z M 28.09375 22.75 C 27.87595 22.75 27.65625 22.9585 27.65625 23.25 C 27.65625 23.5421 27.87595 23.78125 28.09375 23.78125 C 28.38413 23.78125 28.59375 23.5415 28.59375 23.25 C 28.59375 22.9578 28.38427 22.75 28.09375 22.75 z M 23.71875 23.25 C 24.04948 23.25 24.25 23.4189 24.25 23.75 C 24.25 23.9723 24.04954 24.1875 23.71875 24.1875 C 23.49625 24.1875 23.28125 23.9723 23.28125 23.75 C 23.28125 23.4189 23.49631 23.25 23.71875 23.25 z M 15.53125 24.1875 C 14.45993 24.1875 13.5625 25.08485 13.5625 26.15625 C 13.5625 27.22765 14.45993 28.09375 15.53125 28.09375 C 16.60258 28.09375 17.46875 27.22765 17.46875 26.15625 C 17.46875 25.08485 16.60258 24.1875 15.53125 24.1875 z M 15.53125 25.1875 C 16.05714 25.1875 16.46875 25.63015 16.46875 26.15625 C 16.46875 26.68215 16.05714 27.09375 15.53125 27.09375 C 15.00539 27.09375 14.5625 26.68215 14.5625 26.15625 C 14.5625 25.63015 15.00539 25.1875 15.53125 25.1875 z M 18.4375 28.5625 C 18.14709 28.5625 17.9375 28.7709 17.9375 29.0625 C 17.9375 29.3548 18.14698 29.5625 18.4375 29.5625 C 18.72791 29.5625 18.9375 29.3541 18.9375 29.0625 C 18.9375 28.7706 18.72801 28.5625 18.4375 28.5625 z " id="path10053" style="font-size:medium;font-style:normal;font-variant:normal;font-weight:normal;font-stretch:normal;text-indent:0;text-align:start;text-decoration:none;line-height:normal;letter-spacing:normal;word-spacing:normal;text-transform:none;direction:ltr;block-progression:tb;writing-mode:lr-tb;text-anchor:start;baseline-shift:baseline;color:#000000;fill:#000000;fill-opacity:1;stroke:none;stroke-width:1;marker:none;visibility:visible;display:inline;overflow:visible;enable-background:accumulate;font-family:Sans;-inkscape-font-specification:Sans" transform="translate(-176,1146.3622)"/></g></g></g></g></g></svg>